<?xml version="1.0" standalone="no"?>
<!DOCTYPE svg PUBLIC "-//W3C//DTD SVG 20010904//EN"
 "http://www.w3.org/TR/2001/REC-SVG-20010904/DTD/svg10.dtd">
<svg version="1.0" xmlns="http://www.w3.org/2000/svg"
 width="520.000000pt" height="520.000000pt" viewBox="0 0 520.000000 520.000000"
 preserveAspectRatio="xMidYMid meet">
<metadata>
Created by potrace 1.14, written by Peter Selinger 2001-2017
</metadata>
<g transform="translate(0.000000,520.000000) scale(0.100000,-0.100000)"
fill="#000000" stroke="none">
<path d="M0 3893 c1 -1073 3 -1302 14 -1273 7 19 45 88 84 152 40 64 72 120
72 125 0 5 17 32 37 60 21 29 60 87 86 130 26 43 62 100 80 127 18 28 58 90
90 139 31 49 57 92 57 96 0 4 11 18 25 31 14 13 25 28 25 32 0 5 11 24 25 42
14 18 25 37 25 42 0 5 15 31 33 59 57 86 97 156 97 170 0 7 4 15 9 17 11 4 91
124 91 136 0 6 15 32 33 58 18 27 41 65 50 85 9 20 23 42 32 49 8 7 15 18 15
24 0 6 9 17 20 24 11 7 20 17 20 23 0 17 100 132 135 157 17 12 53 44 82 72
29 27 57 50 64 50 6 0 29 16 52 35 22 19 49 35 59 35 10 0 18 5 18 10 0 6 5
10 11 10 7 0 28 10 48 22 45 29 178 88 211 95 14 4 38 17 53 29 16 13 41 27
55 30 15 4 47 20 70 36 24 16 64 31 88 35 25 3 47 10 50 14 3 5 20 9 37 9 18
0 43 7 55 16 18 13 47 15 152 12 72 -2 130 -6 130 -10 0 -4 8 -7 18 -7 9 0 33
-3 52 -6 121 -21 234 -35 274 -35 25 0 46 -4 46 -9 0 -5 35 -17 78 -26 42 -10
84 -24 93 -32 8 -7 25 -13 38 -13 26 0 121 -46 121 -59 0 -22 69 -51 122 -51
29 0 80 -7 113 -15 32 -9 65 -13 73 -10 33 12 63 -8 89 -59 14 -28 47 -74 73
-102 26 -27 51 -65 55 -82 4 -21 23 -46 51 -69 24 -21 46 -44 49 -53 3 -8 37
-49 76 -90 38 -41 83 -97 99 -125 16 -27 42 -58 58 -67 25 -15 31 -26 34 -65
5 -56 -8 -144 -30 -193 -9 -19 -19 -55 -23 -80 -4 -25 -10 -55 -14 -67 -9 -27
6 -30 29 -7 15 14 17 14 22 0 3 -9 1 -22 -5 -30 -6 -7 -8 -21 -5 -30 5 -14 1
-17 -20 -14 -20 2 -31 -4 -43 -24 -23 -37 -7 -49 21 -17 l23 26 10 -26 c12
-33 2 -53 -51 -102 -34 -32 -39 -42 -45 -100 -4 -35 -12 -74 -19 -86 -7 -12
-12 -37 -12 -57 0 -19 -5 -38 -10 -41 -6 -3 -10 -16 -10 -29 0 -12 -4 -26 -9
-32 -5 -5 -11 -31 -13 -59 l-3 -50 38 -3 c38 -3 51 -25 21 -36 -13 -5 -15 -15
-11 -46 3 -21 2 -42 -2 -45 -3 -4 -7 -11 -7 -16 -4 -31 -7 -30 -15 5 -6 26 -6
43 2 52 13 16 3 50 -17 58 -23 9 -36 -3 -32 -27 1 -12 -3 -36 -11 -54 -15 -37
-1 -73 29 -73 28 0 51 -11 44 -21 -7 -13 -48 -11 -61 2 -15 15 -33 3 -33 -23
0 -22 -17 -89 -30 -123 -5 -11 -11 -40 -13 -64 -5 -37 -3 -44 14 -48 21 -6 53
-69 43 -84 -3 -5 1 -12 10 -15 11 -4 12 -11 4 -35 -5 -16 -14 -29 -20 -29 -5
0 -7 -4 -4 -9 3 -5 -1 -15 -10 -22 -13 -11 -14 -9 -8 17 4 16 11 34 16 40 5 8
3 18 -7 27 -8 9 -15 29 -15 46 0 40 -15 47 -35 18 -14 -22 -14 -29 -2 -66 12
-35 13 -41 1 -41 -8 0 -14 -10 -14 -25 0 -14 -6 -36 -14 -48 -7 -12 -17 -42
-20 -67 -4 -24 -12 -50 -18 -57 -6 -7 -8 -22 -5 -32 3 -11 -1 -28 -8 -38 -7
-10 -15 -31 -18 -48 -3 -16 -9 -43 -13 -59 -6 -26 -5 -29 15 -23 11 3 21 1 21
-4 0 -5 -4 -9 -10 -9 -14 0 -12 -32 4 -55 7 -11 14 -23 15 -28 3 -31 37 -131
57 -172 13 -28 24 -59 24 -71 0 -11 4 -24 9 -29 5 -6 14 -27 20 -47 7 -20 19
-42 27 -48 7 -7 14 -25 14 -40 0 -15 7 -33 15 -40 8 -7 15 -20 15 -29 0 -9 9
-29 20 -46 11 -16 20 -40 20 -52 0 -35 21 -39 46 -8 26 32 42 29 24 -5 -9 -18
-8 -25 6 -41 10 -11 26 -18 36 -16 22 6 24 -9 3 -17 -9 -3 -15 -14 -13 -23 2
-14 -3 -17 -19 -15 -27 4 -32 -28 -8 -52 8 -8 15 -19 15 -23 0 -5 9 -28 20
-51 11 -22 20 -46 20 -52 0 -6 11 -31 25 -56 14 -25 25 -54 25 -64 0 -11 3
-20 8 -20 11 0 34 -58 29 -72 -2 -7 4 -24 14 -37 11 -13 19 -36 19 -51 0 -15
11 -44 25 -64 14 -20 25 -42 25 -49 0 -7 6 -21 14 -32 7 -11 16 -32 20 -48 4
-18 13 -27 26 -27 23 0 24 -4 8 -30 -10 -15 -9 -22 5 -38 9 -10 17 -23 17 -29
0 -5 11 -23 25 -39 14 -16 25 -35 25 -43 0 -19 42 -91 53 -91 5 0 4 -7 -3 -14
-20 -26 -8 -61 23 -64 28 -3 35 -20 15 -40 -8 -8 90 -11 410 -12 l422 0 0
2600 0 2600 -2600 0 -2600 0 0 -1307z m3722 520 c9 -10 37 -41 64 -68 69 -71
124 -141 117 -149 -22 -21 -93 32 -93 70 0 8 -9 14 -20 14 -11 0 -20 5 -20 11
0 5 4 8 9 4 5 -3 12 -1 16 5 3 5 0 10 -8 10 -8 0 -17 9 -20 20 -4 15 -14 20
-36 20 -26 0 -31 4 -31 24 0 13 -3 31 -6 40 -8 21 9 20 28 -1z m236 -292 c7
-19 10 -37 7 -39 -3 -3 -6 -3 -8 -1 -2 2 -14 20 -28 39 -14 19 -23 43 -21 53
4 18 4 18 21 0 10 -10 23 -34 29 -52z m75 -413 c-3 -13 -10 -28 -14 -34 -5 -5
-6 -20 -2 -32 3 -13 1 -22 -6 -22 -14 0 -14 50 -1 84 12 32 30 34 23 4z
m-3963 -68 c0 -12 -40 -33 -48 -25 -4 4 2 13 12 21 23 16 36 18 36 4z m3877
-371 c3 -17 0 -18 -17 -9 -11 6 -20 8 -20 4 0 -4 -3 -4 -7 -1 -3 4 2 14 13 21
22 16 27 14 31 -15z m-7 -68 c0 -5 -7 -14 -15 -21 -13 -10 -15 -9 -15 9 0 12
6 21 15 21 8 0 15 -4 15 -9z m-30 -131 c0 -13 -10 -24 -25 -30 -14 -5 -25 -14
-25 -20 0 -5 -5 -10 -10 -10 -6 0 -9 14 -8 30 2 24 7 30 25 30 12 0 25 5 28
10 10 16 15 12 15 -10z m-90 -454 c0 -13 -11 -34 -25 -47 -30 -29 -36 -62 -7
-36 10 10 22 17 25 17 11 0 8 -38 -3 -42 -12 -4 -21 -36 -25 -91 -4 -48 -15
-62 -15 -19 0 18 -5 32 -10 32 -7 0 -7 7 1 21 8 16 8 27 -2 45 -7 13 -9 27 -6
31 4 3 0 14 -8 23 -14 16 -14 18 0 24 9 3 21 4 26 0 5 -3 9 2 9 11 0 22 18 55
30 55 6 0 10 -11 10 -24z m-91 -442 c-7 -16 -13 -36 -13 -44 -1 -8 -10 -15
-21 -15 -29 0 -21 44 13 72 32 27 36 24 21 -13z m-49 -118 c0 -15 -37 -32 -47
-23 -7 8 20 36 35 37 6 0 12 -6 12 -14z m-30 -76 c0 -5 -7 -10 -16 -10 -8 0
-12 5 -9 10 3 6 10 10 16 10 5 0 9 -4 9 -10z m172 -360 c2 -12 -8 -15 -50 -15
-42 0 -52 3 -50 15 2 8 6 14 10 13 4 -1 20 4 35 12 29 15 48 7 55 -25z m-43
-108 c6 -11 13 -12 29 -3 16 8 23 8 29 -1 17 -29 12 -40 -16 -35 -16 3 -33 1
-38 -4 -11 -11 -53 59 -53 89 1 14 4 13 21 -7 11 -13 23 -31 28 -39z m89 -112
c18 -11 30 -24 27 -29 -3 -5 3 -11 12 -13 16 -3 15 -6 -5 -26 l-23 -23 26 -20
c14 -12 23 -25 20 -30 -9 -14 -45 -11 -45 4 0 8 -11 20 -25 27 -30 16 -33 40
-5 47 11 3 20 11 20 18 0 18 -25 36 -41 30 -8 -3 -20 4 -27 15 -11 18 -10 20
10 20 13 0 38 -9 56 -20z m85 -174 c4 -10 1 -13 -9 -9 -15 6 -19 23 -5 23 5 0
11 -7 14 -14z m42 -144 c-3 -3 -11 0 -18 7 -9 10 -8 11 6 5 10 -3 15 -9 12
-12z m-37 -47 c-3 -3 -9 2 -12 12 -6 14 -5 15 5 6 7 -7 10 -15 7 -18z m55 8
c-7 -2 -19 -2 -25 0 -7 3 -2 5 12 5 14 0 19 -2 13 -5z m-5 -49 c12 -8 22 -12
22 -7 1 4 11 -12 23 -37 19 -39 20 -46 7 -52 -11 -5 -8 -7 8 -7 28 -1 86 -60
101 -103 6 -17 11 -46 11 -64 0 -26 4 -33 23 -36 25 -3 35 -41 17 -64 -10 -11
-10 -14 -1 -14 7 0 10 -4 7 -8 -5 -9 16 -28 50 -48 26 -15 48 -62 36 -77 -15
-19 -24 -69 -14 -76 5 -3 12 -21 15 -38 6 -28 4 -33 -13 -33 -13 0 -20 7 -20
20 0 10 -9 24 -21 30 -14 8 -17 15 -11 23 15 19 25 70 12 62 -6 -4 -23 5 -37
19 -14 14 -30 26 -36 26 -5 0 -4 6 2 14 8 10 9 20 2 33 -5 10 -12 26 -15 35
-3 11 -11 15 -21 12 -11 -4 -14 -2 -9 9 3 8 1 32 -5 53 -7 27 -7 41 1 51 8 10
8 21 -3 41 -23 47 -30 53 -45 41 -20 -16 -31 -4 -39 41 -4 22 -13 47 -21 55
-10 9 -12 23 -8 41 6 24 5 26 -16 19 -14 -4 -20 -3 -16 3 3 5 -1 15 -9 22 -33
27 -13 40 23 14z m359 -700 c13 -12 13 -20 4 -40 -13 -30 -40 -42 -51 -24 -12
19 -5 60 11 71 18 11 18 12 36 -7z m63 -134 c0 -5 -5 -10 -11 -10 -5 0 -7 5
-4 10 3 6 8 10 11 10 2 0 4 -4 4 -10z"/>
<path d="M3840 4230 c0 -5 5 -10 10 -10 6 0 10 5 10 10 0 6 -4 10 -10 10 -5 0
-10 -4 -10 -10z"/>
<path d="M4220 510 c0 -5 7 -10 16 -10 8 0 12 5 9 10 -3 6 -10 10 -16 10 -5 0
-9 -4 -9 -10z"/>
<path d="M1932 4766 c-23 -17 -50 -42 -59 -56 -9 -14 -21 -28 -25 -31 -5 -3
-10 -21 -13 -40 -2 -18 -9 -35 -16 -38 -6 -2 -19 -12 -27 -22 -20 -23 -32 -24
-32 -4 0 8 -4 15 -10 15 -12 0 -12 -7 -1 -35 5 -11 2 -41 -6 -70 -8 -27 -15
-58 -14 -68 0 -10 -7 -21 -15 -24 -17 -6 -20 -88 -3 -98 5 -4 19 1 29 10 25
23 64 105 61 128 -1 10 5 27 15 38 14 16 15 21 3 35 -11 14 -10 19 11 35 14
10 27 19 30 19 6 0 32 64 36 87 1 7 21 30 44 52 33 31 41 45 38 69 l-3 29 -43
-31z"/>
<path d="M2288 4758 c20 -20 15 -40 -7 -28 -28 14 -51 12 -51 -5 0 -8 -15 -21
-34 -29 -20 -8 -46 -32 -62 -55 -15 -23 -31 -41 -35 -41 -5 0 -9 -6 -9 -14 0
-8 -3 -16 -8 -18 -13 -6 -102 -130 -102 -142 0 -7 -7 -27 -16 -45 -35 -71 -64
-288 -45 -343 8 -23 8 -35 0 -44 -9 -11 -8 -18 1 -29 11 -13 10 -18 -5 -29
-18 -13 -19 -33 -17 -312 1 -265 7 -396 26 -609 3 -33 10 -141 16 -240 13
-212 53 -612 67 -658 3 -12 11 -17 24 -14 17 5 17 3 2 -19 -13 -21 -15 -43 -9
-137 8 -133 25 -265 38 -289 4 -10 15 -72 24 -139 8 -67 21 -143 28 -168 12
-40 25 -117 40 -251 6 -52 45 -311 51 -340 2 -14 9 -26 13 -28 5 -1 18 -9 28
-17 17 -13 18 -14 2 -15 -14 0 -18 -8 -18 -34 0 -57 36 -216 49 -216 3 0 12 9
19 21 10 16 10 24 1 35 -6 7 -9 28 -7 44 3 17 1 33 -4 36 -15 10 -8 42 11 47
14 3 17 11 14 31 -3 14 -12 26 -19 26 -17 0 -19 31 -3 47 8 8 5 15 -8 24 -25
18 -37 59 -17 59 8 0 14 10 14 25 0 33 -37 35 -43 3 -3 -19 -5 -17 -6 7 -2 17
-5 41 -7 55 -2 14 -8 93 -12 175 -4 83 -11 156 -15 162 -5 7 1 16 13 23 16 9
20 18 15 43 -7 46 14 71 54 62 35 -7 34 -5 21 -63 -9 -37 -7 -46 12 -72 17
-23 19 -33 10 -42 -9 -9 -12 -7 -12 11 0 32 -25 21 -25 -11 -1 -15 -6 -32 -12
-40 -13 -16 1 -58 20 -58 10 0 13 8 10 24 -4 17 2 31 21 47 14 12 23 26 20 30
-2 4 0 10 6 14 15 10 12 46 -7 67 -14 15 -14 18 -1 18 8 0 23 -9 33 -20 11
-13 31 -20 53 -20 22 0 45 -9 64 -25 16 -14 37 -25 46 -25 10 0 23 -9 30 -20
15 -24 32 -26 32 -3 0 14 4 13 24 -6 20 -19 37 -23 122 -26 106 -4 124 2 124
41 0 18 6 24 21 24 12 0 18 -4 13 -11 -3 -6 0 -15 7 -20 22 -14 29 -11 30 14
l0 22 9 -23 c8 -19 13 -21 30 -12 11 6 20 20 20 32 0 16 -5 19 -24 16 -15 -3
-27 0 -30 8 -7 18 3 24 41 24 35 0 44 14 17 24 -11 4 -14 13 -11 28 7 24 -17
58 -40 58 -8 0 -13 7 -11 17 3 14 11 17 41 15 31 -3 37 0 37 16 0 11 -7 25
-15 32 -10 8 -12 17 -6 24 5 6 8 42 6 79 -3 58 -1 69 16 80 10 6 19 21 19 32
0 27 34 123 49 138 6 6 11 19 11 28 0 10 5 21 10 24 6 3 10 15 10 26 0 15 -7
19 -35 19 -19 0 -35 -4 -35 -10 0 -12 -37 -14 -42 -2 -1 4 -50 28 -107 52 -57
24 -98 46 -92 48 7 2 28 -4 47 -13 20 -9 47 -15 60 -12 13 2 25 0 26 -5 2 -5
33 -12 68 -15 41 -4 68 -11 73 -20 6 -10 17 -13 34 -8 15 3 22 2 19 -4 -13
-21 15 -21 44 0 28 21 29 24 15 45 -21 32 -19 77 6 119 12 20 19 38 16 42 -10
9 -39 -6 -32 -17 3 -5 2 -10 -3 -10 -5 0 -15 11 -22 25 -7 13 -16 23 -19 22
-3 -1 -7 3 -9 8 -7 24 34 14 82 -19 55 -38 107 -46 160 -26 34 12 33 28 -4 78
-31 44 -37 66 -20 77 8 5 7 11 -1 21 -8 10 -8 18 -1 27 14 17 -32 77 -59 77
-10 0 -19 5 -19 10 0 6 -8 10 -17 10 -10 0 -25 5 -33 10 -13 9 -13 11 0 20 13
10 13 11 0 9 -24 -4 -70 23 -71 40 0 10 -2 12 -6 4 -8 -22 -23 -14 -23 13 0
14 -5 34 -10 45 -19 35 -39 22 -56 -37 -9 -31 -29 -75 -45 -99 -16 -24 -29
-48 -29 -54 0 -16 -48 -108 -60 -116 -5 -3 -10 -15 -10 -25 0 -11 -12 -27 -27
-37 -16 -10 -30 -21 -33 -25 -8 -11 -51 3 -44 14 8 13 -16 39 -30 31 -6 -4
-13 -8 -16 -9 -20 -4 -67 -18 -75 -23 -15 -8 -94 -10 -100 -2 -2 4 3 19 13 32
9 13 17 29 17 36 0 6 10 22 21 36 15 16 19 29 13 38 -13 21 -11 29 10 29 13 0
21 10 26 33 16 66 17 65 -39 63 -47 -2 -57 -7 -95 -45 -34 -34 -45 -40 -57
-30 -15 12 -19 55 -6 61 13 6 42 69 42 93 0 28 15 41 24 20 11 -29 42 -16 60
26 18 40 18 40 -6 61 -15 14 -19 22 -10 25 20 7 14 33 -8 33 -23 0 -44 42 -35
71 4 11 2 19 -4 19 -6 0 -11 9 -11 20 0 11 6 20 13 20 19 -1 47 -26 47 -43 0
-9 14 -23 30 -32 17 -9 30 -21 30 -28 0 -20 38 -47 65 -47 18 0 25 5 25 19 0
10 7 21 14 24 10 4 13 1 10 -7 -7 -19 15 -31 48 -27 24 2 28 -1 28 -23 0 -32
17 -34 30 -3 5 12 9 15 9 8 1 -12 4 -12 13 -3 15 15 188 17 188 2 0 -6 10 -5
25 2 18 8 28 8 39 -1 20 -17 57 -22 72 -10 7 6 25 9 41 7 22 -2 29 -9 31 -31
3 -23 0 -28 -15 -25 -27 4 -30 -38 -4 -54 14 -8 19 -19 15 -34 -3 -12 -1 -25
5 -28 6 -4 11 -20 11 -37 0 -25 4 -29 29 -29 17 0 32 3 34 8 7 10 -17 199 -25
208 -15 14 -8 79 12 112 11 18 20 41 20 52 0 13 7 20 20 20 11 0 20 6 20 13 0
6 9 23 20 37 21 26 27 70 10 70 -5 0 -10 -7 -10 -16 0 -9 -9 -18 -20 -21 -11
-3 -20 -9 -20 -13 0 -4 -16 -17 -35 -28 l-34 -21 -19 27 c-10 15 -22 36 -26
46 -6 18 -2 18 58 12 l65 -6 10 37 c9 30 8 39 -4 46 -8 4 -15 14 -15 22 0 8
-9 19 -19 25 -25 13 -71 13 -71 0 0 -14 -79 -1 -105 16 -11 8 -25 14 -32 14
-13 0 -38 18 -79 58 -25 24 -34 92 -13 92 7 0 17 7 23 15 10 14 14 13 34 -6
13 -11 26 -18 30 -14 4 4 1 10 -5 12 -7 3 -13 13 -13 24 0 11 -7 19 -17 19
-15 0 -15 1 0 18 10 10 17 23 17 28 0 5 17 18 38 29 41 22 132 112 132 132 0
6 8 16 17 22 13 7 14 12 6 23 -7 7 -11 20 -9 28 7 39 49 159 66 190 11 19 22
42 26 50 10 25 86 72 125 77 50 7 58 29 14 36 -63 10 -164 -11 -208 -43 -41
-30 -67 -38 -67 -21 0 5 16 19 35 31 38 23 45 40 18 40 -14 0 -14 2 2 20 10
11 13 20 7 20 -7 0 -12 7 -12 15 0 19 -19 19 -39 1 -9 -8 -29 -17 -46 -21
l-30 -6 38 33 c43 38 134 78 178 78 20 0 29 4 26 13 -6 18 -99 10 -167 -15
-30 -11 -70 -34 -87 -51 -18 -17 -35 -28 -39 -25 -12 13 8 48 49 83 23 20 49
42 57 49 25 22 91 49 119 49 14 0 40 -6 56 -14 28 -14 30 -18 29 -67 -1 -29 0
-52 3 -52 2 0 18 7 34 16 17 8 33 13 36 11 7 -8 -21 -47 -34 -47 -7 0 -13 -6
-13 -13 0 -16 36 -37 68 -40 13 -1 22 -8 22 -18 0 -9 7 -22 15 -29 8 -7 15
-19 15 -26 0 -8 7 -14 15 -14 9 0 15 9 15 22 0 20 1 20 19 4 29 -27 37 -73 15
-97 -9 -10 -14 -22 -9 -27 4 -4 10 -1 12 6 3 6 18 12 34 12 16 0 38 6 49 12
15 10 27 10 49 1 24 -8 33 -8 41 2 14 17 -27 63 -64 73 -14 4 -26 10 -26 15 0
4 2 6 4 5 6 -4 46 34 46 44 0 4 -11 8 -25 8 -15 0 -25 6 -25 14 0 21 -19 30
-35 16 -10 -8 -17 -6 -28 11 -9 11 -20 18 -27 14 -6 -4 -17 -1 -25 5 -8 7 -15
10 -15 6 0 -4 -11 1 -24 9 -22 14 -24 22 -22 76 3 62 1 64 -36 50 -18 -7 -29
-4 -49 13 -28 24 -43 53 -29 58 6 2 6 9 0 17 -7 12 -13 13 -34 3 -22 -10 -26
-9 -26 4 0 8 -7 17 -15 20 -8 4 -15 18 -15 34 0 34 -22 54 -50 45 -29 -9 -60
3 -53 21 3 7 13 14 23 14 10 0 24 7 31 16 11 14 11 18 -4 29 -16 12 -14 16 29
54 38 33 50 39 66 30 12 -6 17 -17 14 -27 -4 -11 5 -27 23 -44 20 -20 27 -34
24 -51 -4 -20 2 -29 36 -48 23 -13 41 -30 41 -40 0 -9 23 -36 50 -59 28 -23
50 -46 50 -50 0 -8 20 -32 73 -87 12 -13 29 -23 39 -23 20 0 33 -17 17 -22 -6
-2 -1 -14 13 -28 62 -67 71 -81 75 -121 2 -24 10 -51 18 -61 13 -19 13 -19 27
1 20 28 1 105 -30 127 -12 8 -22 24 -22 35 0 10 -4 19 -10 19 -5 0 -10 4 -10
10 0 12 -35 55 -77 94 -18 16 -33 34 -33 39 0 5 -32 41 -71 80 -39 40 -80 90
-91 112 -11 22 -31 54 -44 72 -13 17 -24 36 -24 42 0 5 -6 14 -13 18 -8 4 -26
29 -41 56 -29 49 -40 56 -53 33 -4 -7 -13 -15 -20 -17 -17 -6 -133 -119 -133
-130 0 -5 9 -9 20 -9 11 0 20 -4 20 -8 0 -19 -25 -30 -55 -25 -29 5 -36 1 -69
-42 -20 -26 -36 -52 -36 -56 0 -5 -25 -36 -55 -70 -30 -34 -55 -67 -55 -74 0
-8 -18 -30 -40 -51 -22 -21 -40 -43 -40 -50 0 -14 -58 -88 -122 -157 -27 -28
-48 -55 -48 -59 0 -5 -19 -36 -43 -71 -23 -34 -48 -73 -55 -87 -6 -14 -16 -32
-21 -40 -21 -34 -51 -102 -51 -116 0 -8 -7 -17 -15 -20 -8 -4 -15 -14 -15 -24
0 -9 -9 -28 -19 -41 -13 -16 -17 -34 -14 -52 4 -20 1 -27 -10 -27 -13 0 -27
-29 -31 -65 -2 -9 -27 -67 -47 -107 -5 -10 -9 -27 -9 -37 0 -11 -5 -23 -11
-26 -5 -4 -8 -12 -6 -18 2 -6 -6 -25 -18 -43 -12 -17 -27 -58 -34 -90 -7 -32
-22 -76 -32 -97 -24 -48 -24 -63 -1 -76 15 -9 15 -10 -5 -11 -23 0 -48 -33
-38 -50 3 -6 -1 -20 -9 -32 -9 -12 -16 -38 -16 -56 0 -25 -5 -35 -20 -39 -11
-3 -20 -14 -20 -24 0 -12 7 -19 20 -19 11 0 20 -7 20 -15 0 -9 -9 -15 -24 -15
-20 0 -30 -11 -51 -53 -14 -30 -23 -61 -19 -70 4 -12 1 -17 -10 -17 -9 0 -18
-12 -22 -27 -4 -16 -10 -32 -14 -38 -4 -5 -10 -21 -13 -35 -9 -45 -31 -94 -59
-134 l-28 -40 -2 75 c-4 170 -3 182 9 186 7 3 13 12 13 19 0 8 7 17 15 20 8 4
15 12 15 20 0 8 11 37 25 65 13 29 22 55 20 59 -10 16 8 41 26 38 10 -2 17 2
16 7 -1 6 -8 9 -15 9 -10 -2 -11 6 -6 29 12 57 51 107 66 84 10 -17 40 13 36
37 -2 12 -13 23 -27 26 -39 9 -39 32 -1 28 38 -3 52 16 18 25 -21 6 -21 7 -5
25 18 20 22 48 8 56 -5 3 -7 22 -4 41 3 25 1 35 -9 35 -20 0 -36 -43 -24 -64
9 -13 7 -20 -6 -30 -10 -7 -20 -31 -24 -53 -9 -55 -18 -70 -37 -55 -19 16 -11
60 17 90 21 24 26 58 26 190 -1 49 3 62 15 62 10 0 15 10 15 30 0 27 -2 29
-30 24 l-30 -6 -1 73 c-3 117 -2 114 -27 117 -17 3 -21 8 -17 25 3 12 -1 33
-8 47 -11 22 -10 29 6 58 10 17 23 32 29 32 5 0 8 10 6 23 -3 23 -48 39 -48
16 0 -8 -7 -5 -20 6 -28 25 -43 86 -30 121 10 26 2 43 -21 44 -4 0 -9 11 -11
25 -3 13 -2 22 3 20 13 -9 22 16 10 28 -8 8 -11 7 -11 -3 0 -11 -3 -11 -12 -2
-15 15 -19 123 -5 140 7 9 7 20 -1 35 -13 26 -13 55 -2 82 13 32 30 111 30
143 0 16 3 32 8 36 4 4 7 11 8 14 2 18 19 48 33 60 14 11 14 13 -1 22 -10 6
-15 18 -12 28 19 57 66 152 76 152 5 0 8 6 8 14 0 8 11 27 23 43 13 15 30 43
38 61 17 40 59 46 59 8 0 -28 29 -39 54 -20 10 7 20 28 23 47 3 27 -1 40 -20
61 -13 14 -33 26 -43 26 -14 0 -15 -3 -6 -12z m48 -64 c-3 -9 -6 -22 -6 -30 0
-12 -4 -12 -21 -4 -20 11 -20 12 -3 31 21 23 38 25 30 3z m951 -424 c45 -10
51 -14 38 -26 -7 -8 -18 -14 -23 -14 -6 0 -12 -7 -16 -15 -3 -8 -11 -15 -18
-15 -16 0 -88 -67 -88 -81 0 -6 -7 -17 -15 -25 -8 -9 -15 -11 -15 -5 0 6 -16
19 -36 29 -35 18 -35 18 -15 37 12 10 21 24 21 32 0 7 11 18 25 23 14 5 25 15
25 23 0 23 29 55 47 52 10 -2 42 -9 70 -15z m88 -69 c-6 -5 -22 -13 -38 -16
-22 -6 -26 -4 -21 9 4 10 18 16 37 16 19 0 27 -4 22 -9z m335 -262 c0 -14 5
-19 14 -16 22 9 28 -31 6 -43 -15 -8 -19 -5 -24 20 -4 21 -11 30 -25 30 -11 0
-27 3 -36 6 -23 9 0 24 38 24 21 0 27 -5 27 -21z m-956 -888 c3 -5 34 -7 68
-5 38 3 81 -1 108 -10 l45 -14 -40 -1 c-22 -1 -70 -8 -107 -17 -42 -10 -77
-14 -95 -9 -15 5 -31 9 -35 9 -4 1 -13 7 -20 14 -11 11 -10 16 6 28 22 16 62
19 70 5z m260 -166 c6 -17 4 -18 -18 -9 -20 8 -21 24 -2 24 8 0 16 -7 20 -15z
m-54 -35 c14 -11 32 -20 40 -20 26 0 63 -31 52 -42 -16 -16 -108 1 -134 24
-13 11 -29 23 -37 28 -8 4 -11 12 -7 19 11 17 58 13 86 -9z m-806 -109 c3 -5
-1 -14 -9 -21 -13 -10 -15 -9 -15 9 0 21 14 28 24 12z m-44 -118 c0 -28 -23
-87 -47 -120 -13 -17 -23 -36 -23 -42 0 -6 -5 -11 -11 -11 -6 0 -8 8 -6 18 3
9 11 41 18 70 7 29 21 61 31 72 10 11 16 20 13 20 -3 0 -3 5 0 10 9 14 25 3
25 -17z m1077 -255 c15 -7 34 -18 41 -25 7 -7 18 -13 23 -13 6 0 9 -10 7 -22
-3 -20 -8 -23 -40 -21 -21 1 -51 9 -67 18 -16 8 -44 16 -63 17 -28 3 -34 -1
-36 -20 -3 -21 -4 -21 -20 -5 -12 12 -13 18 -4 21 6 2 12 9 12 17 0 12 33 29
75 38 35 8 43 7 72 -5z m-30 -118 c32 -11 68 -20 81 -20 24 0 52 -21 52 -38 0
-5 7 -15 15 -22 17 -14 20 -30 5 -30 -6 0 -15 11 -22 25 -6 13 -14 22 -18 20
-4 -2 -16 4 -27 15 -30 27 -112 49 -142 38 -30 -11 -51 -4 -51 17 0 21 38 19
107 -5z m-425 -337 c2 -5 20 -21 41 -36 45 -34 47 -47 6 -47 -42 0 -115 56
-98 76 12 15 45 19 51 7z m298 -87 c0 -13 -9 -34 -19 -47 -17 -21 -22 -22 -40
-11 -11 6 -30 12 -40 12 -11 0 -23 5 -26 10 -4 6 -11 8 -16 5 -15 -10 -10 8
11 35 17 23 21 24 52 12 27 -10 35 -9 47 3 18 18 31 10 31 -19z m-58 -106 c22
0 24 -16 3 -24 -8 -3 -15 -13 -15 -21 0 -22 -19 -9 -30 21 -5 13 -17 24 -25
24 -9 0 -13 5 -10 10 3 6 1 10 -4 10 -6 0 -11 5 -11 10 0 6 17 1 37 -10 21
-11 46 -20 55 -20z m-26 -278 c-3 -3 -12 1 -21 8 -10 9 -19 9 -27 2 -7 -6 -17
-11 -23 -12 -5 0 -9 -14 -7 -31 1 -21 -2 -29 -14 -29 -10 0 -14 6 -10 15 3 8
0 14 -6 12 -7 -1 -15 17 -19 43 -7 43 -5 47 32 83 39 36 63 50 40 24 -12 -15
-5 -27 16 -27 7 0 13 8 13 18 0 10 6 24 13 31 10 10 13 -2 15 -60 2 -39 1 -74
-2 -77z m-133 -56 c-4 -19 0 -25 18 -28 27 -4 44 -51 28 -80 -11 -20 -11 -20
-33 1 -12 12 -27 21 -33 21 -14 0 -24 38 -12 45 4 3 6 12 2 20 -7 21 4 45 20
45 10 0 13 -8 10 -24z"/>
<path d="M3180 4190 c-8 -5 -11 -12 -7 -16 4 -4 15 0 24 9 18 18 8 23 -17 7z"/>
<path d="M2860 1470 c0 -5 7 -10 15 -10 8 0 15 5 15 10 0 6 -7 10 -15 10 -8 0
-15 -4 -15 -10z"/>
<path d="M2800 1320 c0 -5 5 -10 10 -10 6 0 10 5 10 10 0 6 -4 10 -10 10 -5 0
-10 -4 -10 -10z"/>
<path d="M1790 4690 c0 -5 7 -10 15 -10 8 0 15 5 15 10 0 6 -7 10 -15 10 -8 0
-15 -4 -15 -10z"/>
<path d="M1710 4651 c0 -6 5 -13 10 -16 6 -3 10 1 10 9 0 9 -4 16 -10 16 -5 0
-10 -4 -10 -9z"/>
<path d="M1782 4639 c2 -7 10 -15 17 -17 8 -3 12 1 9 9 -2 7 -10 15 -17 17 -8
3 -12 -1 -9 -9z"/>
<path d="M1956 4590 c-25 -29 -47 -75 -39 -84 11 -10 43 15 43 34 0 10 13 27
30 36 38 23 44 39 13 39 -13 0 -34 -11 -47 -25z"/>
<path d="M1658 4603 c7 -3 16 -2 19 1 4 3 -2 6 -13 5 -11 0 -14 -3 -6 -6z"/>
<path d="M2320 4576 c0 -19 -4 -38 -10 -41 -15 -9 -12 -25 5 -25 9 0 23 16 32
35 13 28 14 37 3 50 -20 24 -30 18 -30 -19z"/>
<path d="M3130 4599 c0 -5 5 -7 10 -4 6 3 10 8 10 11 0 2 -4 4 -10 4 -5 0 -10
-5 -10 -11z"/>
<path d="M2242 4578 c-7 -7 -12 -27 -12 -45 0 -26 4 -33 19 -33 13 0 20 9 23
28 3 15 9 35 13 45 5 13 2 17 -12 17 -10 0 -24 -5 -31 -12z"/>
<path d="M1447 4554 c-8 -8 1 -24 14 -24 5 0 9 7 9 15 0 15 -12 20 -23 9z"/>
<path d="M2917 4553 c-10 -9 -9 -43 1 -43 12 0 32 23 32 37 0 14 -22 18 -33 6z"/>
<path d="M3100 4530 c0 -5 5 -10 11 -10 5 0 7 5 4 10 -3 6 -8 10 -11 10 -2 0
-4 -4 -4 -10z"/>
<path d="M3200 4520 c0 -5 5 -10 10 -10 6 0 10 5 10 10 0 6 -4 10 -10 10 -5 0
-10 -4 -10 -10z"/>
<path d="M2200 4501 c0 -6 5 -13 10 -16 8 -5 8 -11 1 -19 -6 -7 -8 -22 -4 -34
4 -18 2 -21 -12 -16 -13 5 -16 2 -14 -17 2 -13 -2 -34 -9 -46 -7 -12 -12 -31
-12 -42 0 -11 -4 -22 -9 -26 -5 -3 -7 -22 -4 -43 7 -55 11 -62 28 -56 9 4 13
13 10 24 -3 9 1 23 10 30 9 8 12 17 6 24 -14 18 -6 78 12 88 11 5 17 22 17 43
0 28 5 36 30 47 l31 13 -28 5 c-16 3 -32 14 -38 28 -10 22 -25 30 -25 13z"/>
<path d="M2852 4479 l-24 -29 27 0 c15 0 24 4 20 10 -3 6 -1 10 4 10 6 0 11 9
11 20 0 27 -11 24 -38 -11z"/>
<path d="M3110 4500 c0 -5 5 -10 10 -10 6 0 10 5 10 10 0 6 -4 10 -10 10 -5 0
-10 -4 -10 -10z"/>
<path d="M1430 4490 c0 -5 4 -10 9 -10 6 0 13 5 16 10 3 6 -1 10 -9 10 -9 0
-16 -4 -16 -10z"/>
<path d="M3059 4483 c-1 -10 -1 -21 0 -25 0 -5 -4 -8 -11 -8 -16 0 -68 -51
-68 -67 0 -7 -4 -13 -10 -13 -5 0 -10 -7 -10 -15 0 -10 10 -15 29 -15 35 0 46
13 26 30 -23 19 -18 40 9 40 13 0 29 6 35 13 17 21 26 77 12 77 -6 0 -12 -8
-12 -17z"/>
<path d="M1588 4438 c-9 -29 -28 -84 -43 -123 -26 -68 -33 -92 -73 -245 -11
-41 -23 -82 -26 -90 -7 -18 -35 -189 -40 -245 -2 -22 -9 -78 -15 -125 -27
-212 -53 -1061 -32 -1074 4 -3 9 -38 9 -78 1 -40 8 -110 17 -156 8 -46 12 -96
8 -112 -3 -16 -2 -37 2 -47 3 -10 7 -67 7 -128 1 -60 4 -114 8 -120 4 -5 15
-116 24 -245 9 -129 19 -251 22 -270 16 -109 24 -179 34 -300 6 -74 15 -144
20 -155 4 -11 12 -60 15 -110 4 -49 11 -130 16 -180 5 -49 8 -106 8 -127 0
-25 8 -45 27 -65 20 -22 24 -24 19 -8 -14 44 -22 106 -14 111 5 3 6 17 3 31
-4 16 -2 28 7 34 12 8 11 11 -3 20 -18 10 -26 59 -10 59 4 0 13 14 19 30 9 24
9 30 -1 30 -9 0 -15 22 -20 63 -3 34 -11 91 -16 127 -6 36 -10 92 -11 125 0
32 -5 67 -10 77 -11 20 -24 161 -35 358 -7 143 -10 168 -19 202 -4 14 -2 35 3
45 7 13 6 26 -3 43 -9 17 -10 29 -3 37 5 7 6 18 2 25 -9 14 -11 37 -17 153 -4
78 4 115 31 143 14 15 31 -1 73 -65 11 -18 25 -33 30 -33 5 0 9 -29 9 -65 0
-37 4 -65 10 -65 6 0 10 -20 10 -44 0 -25 5 -48 10 -51 7 -4 6 -13 -1 -27 -8
-14 -8 -23 0 -31 6 -6 11 -19 11 -29 0 -10 5 -18 11 -18 6 0 7 -5 2 -12 -9
-15 -5 -48 8 -64 5 -7 8 -28 6 -48 -2 -20 1 -43 8 -53 7 -9 10 -25 7 -35 -2
-10 0 -18 5 -18 5 0 9 -17 9 -37 1 -52 8 -94 22 -119 8 -16 8 -24 -1 -33 -9
-9 -9 -16 1 -31 6 -11 12 -31 12 -45 0 -17 11 -32 36 -49 19 -13 31 -27 25
-30 -5 -4 -12 -2 -16 4 -8 13 -55 -18 -55 -36 0 -19 17 -18 28 2 8 15 10 14
16 -2 4 -10 1 -21 -6 -25 -7 -4 -9 -11 -5 -15 3 -4 14 -1 23 7 16 13 17 11 11
-13 -5 -19 -1 -38 13 -63 24 -42 26 -88 5 -105 -8 -7 -15 -15 -15 -19 0 -10
61 -42 70 -36 12 7 0 138 -14 150 -6 6 -12 38 -13 71 0 60 -19 124 -36 124 -5
0 -5 5 -1 11 4 7 -4 20 -17 31 l-24 19 23 16 23 16 -22 24 c-18 18 -23 36 -24
86 -1 67 -11 130 -25 162 -10 24 -26 101 -35 170 -5 32 -14 56 -28 67 l-21 19
22 15 c13 9 22 26 22 41 0 22 -3 25 -29 21 -17 -2 -28 -1 -25 4 3 4 13 8 24 8
10 0 21 7 24 16 9 23 8 24 -12 24 -27 0 -31 8 -19 39 6 16 7 36 2 47 -5 10 -9
21 -10 24 -1 3 -5 13 -10 23 -4 11 -3 23 3 29 17 17 -2 94 -39 161 -6 11 -6
17 1 17 13 0 13 46 -1 71 -7 15 -7 24 1 34 8 9 8 31 -1 81 -6 38 -12 104 -13
146 -1 43 -5 81 -9 84 -11 11 -8 230 4 309 5 39 10 82 11 97 1 15 5 25 9 22 7
-4 59 41 59 51 0 3 -9 5 -20 5 -13 0 -20 -7 -20 -20 0 -11 -6 -20 -14 -20 -11
0 -14 15 -13 65 1 44 6 65 15 65 15 0 16 12 2 26 -8 8 -6 15 4 23 13 11 13 15
3 26 -8 8 -12 30 -9 61 10 125 15 160 26 167 8 5 7 11 -4 20 -10 8 -15 30 -15
67 0 30 -4 66 -9 79 -4 13 -4 21 1 18 5 -3 7 40 5 99 -3 64 0 109 6 117 7 8 7
18 2 27 -14 21 -12 58 2 62 8 3 4 9 -10 17 -18 9 -21 16 -13 25 7 8 13 79 15
170 2 104 8 161 16 171 10 12 10 18 0 30 -22 27 -36 16 -52 -37z"/>
<path d="M1884 4473 c-3 -10 -9 -25 -14 -35 -6 -11 -3 -23 10 -38 22 -25 27
-19 31 39 4 46 -15 70 -27 34z"/>
<path d="M3169 4463 c-13 -16 -12 -17 4 -4 9 7 17 15 17 17 0 8 -8 3 -21 -13z"/>
<path d="M1313 4449 c-13 -5 -23 -13 -23 -18 0 -5 -20 -24 -45 -42 -25 -18
-43 -34 -40 -37 6 -6 -40 -42 -54 -42 -6 0 -11 -3 -11 -7 0 -5 -23 -33 -50
-63 -27 -30 -50 -64 -50 -76 0 -11 -13 -33 -30 -49 -16 -16 -30 -36 -30 -44 0
-9 -9 -22 -19 -28 -11 -7 -22 -25 -26 -41 -3 -16 -24 -49 -45 -73 -22 -24 -40
-52 -40 -61 0 -10 -9 -25 -19 -35 -15 -14 -51 -84 -51 -99 0 -1 7 -10 16 -18
14 -15 13 -16 -10 -16 -21 0 -30 -10 -50 -52 -22 -46 -23 -54 -11 -68 11 -12
14 -33 11 -72 -4 -41 -1 -58 8 -61 19 -7 27 -69 11 -87 -16 -19 -27 -81 -25
-142 0 -26 -5 -58 -11 -70 -8 -14 -12 -60 -11 -123 3 -216 11 -263 34 -220 11
19 11 19 18 0 4 -11 3 -30 -1 -43 -5 -14 -5 -31 0 -41 12 -22 7 -157 -6 -173
-6 -7 -13 -39 -16 -72 -6 -64 -12 -75 -28 -59 -12 12 -17 238 -6 250 13 12 7
23 -11 23 -10 0 -23 5 -30 12 -19 19 -27 -19 -9 -45 12 -19 13 -33 5 -72 -7
-35 -7 -49 1 -55 9 -5 8 -10 -3 -19 -8 -7 -20 -10 -25 -7 -11 7 -34 -28 -24
-38 3 -3 3 -6 -1 -6 -18 0 -36 32 -36 64 0 20 -5 36 -11 36 -5 0 -8 3 -6 8 3
4 8 64 12 134 6 122 6 127 -13 125 -17 -1 -19 -7 -15 -39 3 -20 2 -45 -3 -55
-4 -10 -8 -22 -9 -28 -1 -5 -5 -20 -9 -33 -5 -15 -2 -31 8 -47 9 -14 12 -25 7
-25 -13 0 -1 -72 15 -88 7 -7 11 -19 8 -26 -3 -8 3 -20 13 -27 11 -8 25 -29
32 -47 8 -18 23 -39 34 -47 15 -11 20 -26 21 -75 1 -41 6 -64 16 -70 8 -5 14
-27 16 -52 2 -56 2 -58 14 -58 6 0 10 9 10 21 0 31 23 18 35 -19 5 -18 14 -32
21 -32 16 0 54 -35 54 -49 0 -7 16 -29 36 -49 32 -34 35 -41 30 -79 -5 -36 -3
-43 11 -43 13 0 14 -3 5 -12 -16 -16 -15 -31 1 -25 30 10 75 -81 48 -98 -6 -3
-6 -18 0 -37 6 -22 5 -34 -2 -39 -8 -4 -7 -8 2 -11 12 -4 12 -9 -1 -32 -11
-22 -12 -31 -1 -48 9 -15 10 -23 2 -31 -18 -18 -12 -57 18 -117 16 -32 28 -60
26 -62 -2 -2 -6 -28 -9 -58 -6 -62 -30 -97 -47 -67 -6 9 -16 17 -24 17 -8 0
-19 10 -26 21 -6 12 -38 56 -70 99 -32 42 -62 91 -65 109 -4 20 -16 37 -29 43
-12 5 -31 31 -43 56 -33 72 -65 128 -87 152 -11 12 -19 31 -17 41 2 14 -3 19
-20 19 -30 0 -41 9 -55 43 -7 15 -17 27 -23 27 -5 0 -10 6 -10 14 0 7 -6 19
-14 26 -8 6 -12 18 -9 26 3 8 0 14 -5 14 -6 0 -14 10 -18 23 -3 12 -11 28 -17
35 -6 8 -11 27 -11 44 -1 19 -8 35 -20 42 -38 23 -76 68 -76 92 0 29 -33 33
-68 8 -18 -13 -21 -19 -11 -30 8 -10 15 -11 24 -4 10 8 12 4 10 -18 -1 -16 -5
-34 -9 -41 -5 -7 -6 -15 -3 -18 9 -8 27 7 27 23 0 13 2 13 16 -1 9 -9 24 -13
34 -10 14 5 17 2 13 -14 -3 -10 0 -28 6 -39 9 -17 8 -22 -9 -27 -11 -3 -20 -9
-21 -13 -4 -34 -14 -51 -51 -84 -31 -28 -44 -34 -46 -23 -5 22 -22 18 -22 -5
0 -14 -9 -21 -37 -25 -21 -3 -45 -10 -55 -15 -10 -5 -30 -5 -50 0 -18 6 -36
10 -41 10 -4 0 -6 -39 -5 -86 2 -65 7 -89 18 -94 50 -25 68 -31 81 -29 8 2 26
0 41 -4 20 -5 25 -12 21 -27 -5 -20 11 -28 22 -10 8 13 114 -41 142 -74 12
-14 39 -34 60 -46 50 -27 71 -41 98 -65 74 -68 103 -92 125 -106 23 -15 124
-102 197 -170 25 -23 40 -29 78 -29 35 0 51 -6 70 -25 29 -28 31 -43 10 -51
-21 -9 -19 -48 5 -69 11 -10 20 -26 20 -37 0 -10 15 -47 34 -83 19 -36 30 -65
25 -65 -5 0 -9 -6 -9 -13 0 -8 -9 -22 -20 -32 -11 -10 -20 -13 -20 -7 0 7 -4
12 -10 12 -17 0 -11 -14 11 -28 18 -12 24 -11 40 7 10 11 19 26 20 33 0 7 11
-9 25 -37 13 -27 29 -54 34 -59 6 -6 10 -39 10 -74 0 -49 -5 -70 -20 -89 -11
-14 -20 -39 -20 -54 0 -18 -8 -34 -20 -41 -21 -13 -26 -37 -11 -53 5 -6 11
-29 15 -51 5 -35 2 -45 -20 -69 -23 -25 -24 -29 -10 -44 20 -22 20 -41 1 -41
-19 0 -19 -34 0 -50 8 -7 15 -21 15 -30 0 -48 5 -50 137 -50 l125 0 -6 27 c-3
16 -8 57 -11 93 -3 36 -10 74 -16 85 -5 11 -18 79 -30 150 -11 72 -28 184 -39
250 -10 66 -19 138 -19 160 -1 23 -5 45 -11 51 -5 5 -15 77 -21 159 -7 83 -17
164 -24 180 -19 45 -47 306 -47 435 0 8 -2 22 -6 30 -7 18 -8 27 -26 160 -7
58 -18 123 -24 145 -6 22 -19 96 -27 165 -17 131 -50 306 -66 347 -14 39 -11
94 11 153 11 30 20 67 20 83 0 16 5 37 11 48 5 11 12 69 13 130 2 61 6 112 9
115 3 3 3 23 0 45 -7 49 17 278 29 285 5 3 4 12 -3 20 -8 10 -8 18 -1 27 6 7
11 40 11 72 -1 72 9 193 16 205 3 4 7 43 10 86 4 43 10 83 14 89 5 5 12 27 15
49 4 21 12 50 18 65 6 14 12 29 12 33 1 3 4 10 9 14 10 10 9 52 -3 74 -7 13
-6 19 5 24 8 3 15 13 15 22 0 9 9 29 20 45 12 15 28 51 36 79 8 28 21 53 28
56 8 3 16 22 20 42 3 21 15 48 26 59 11 12 20 25 20 30 0 4 12 19 26 34 28 29
17 43 -23 28z m-135 -242 c4 -29 -3 -34 -21 -14 -21 21 -21 49 0 45 11 -2 19
-14 21 -31z m-361 -594 c-4 -51 -24 -110 -44 -130 -19 -20 -22 6 -6 51 12 35
11 41 -3 58 -16 17 -16 18 -1 18 11 0 17 8 17 25 0 19 5 25 21 25 19 0 21 -5
16 -47z m-18 -503 c5 0 7 -26 6 -57 -4 -77 -2 -73 -25 -73 -17 0 -20 6 -18 40
1 21 -4 45 -11 53 -13 16 -6 42 18 71 15 18 16 17 19 -8 2 -14 7 -26 11 -26z
m6 -159 c10 -18 -17 -23 -33 -7 -15 15 -15 16 5 16 12 0 24 -4 28 -9z m-447
-1178 c-2 -12 -14 -19 -36 -21 -34 -3 -35 -2 -26 22 9 23 67 22 62 -1z"/>
<path d="M2450 4440 c0 -5 11 -10 25 -10 14 0 25 5 25 10 0 6 -11 10 -25 10
-14 0 -25 -4 -25 -10z"/>
<path d="M1405 4420 c-3 -5 -1 -10 4 -10 6 0 11 5 11 10 0 6 -2 10 -4 10 -3 0
-8 -4 -11 -10z"/>
<path d="M3380 4390 c0 -5 5 -10 10 -10 6 0 10 5 10 10 0 6 -4 10 -10 10 -5 0
-10 -4 -10 -10z"/>
<path d="M2270 4380 c0 -5 5 -10 10 -10 6 0 10 5 10 10 0 6 -4 10 -10 10 -5 0
-10 -4 -10 -10z"/>
<path d="M2425 4377 c-11 -5 -27 -13 -35 -17 -19 -9 -22 -80 -3 -98 7 -8 21
-11 31 -7 15 6 15 8 -4 24 -20 16 -21 19 -7 47 8 16 22 35 31 41 21 17 12 23
-13 10z"/>
<path d="M3440 4370 c0 -5 5 -10 10 -10 6 0 10 5 10 10 0 6 -4 10 -10 10 -5 0
-10 -4 -10 -10z"/>
<path d="M3075 4359 c-4 -6 -5 -13 -2 -16 7 -7 27 6 27 18 0 12 -17 12 -25 -2z"/>
<path d="M2520 4335 c0 -8 9 -15 20 -15 24 0 27 15 4 24 -22 9 -24 8 -24 -9z"/>
<path d="M1860 4325 c-7 -9 -15 -39 -18 -68 -2 -29 -9 -58 -15 -65 -8 -10 -7
-16 3 -22 12 -7 12 -13 0 -35 -12 -23 -12 -28 0 -35 25 -15 39 9 38 63 0 29 2
78 7 110 8 63 5 76 -15 52z"/>
<path d="M2727 4334 c-15 -15 -7 -45 11 -42 9 2 17 12 17 22 0 20 -16 31 -28
20z"/>
<path d="M2847 4284 c-3 -4 -14 -8 -24 -9 -41 -4 -73 -25 -73 -47 0 -39 -12
-68 -27 -68 -31 0 -4 -25 28 -26 43 -1 69 12 69 34 0 10 16 35 35 57 20 21 34
43 32 49 -4 13 -30 20 -40 10z"/>
<path d="M3425 4280 c-12 -19 5 -30 25 -17 11 6 20 15 20 19 0 12 -38 10 -45
-2z"/>
<path d="M2674 4251 c-31 -19 -82 -103 -60 -100 6 1 20 -2 30 -6 24 -10 64 31
46 49 -16 16 -12 32 15 46 14 7 25 17 25 22 0 13 -23 9 -56 -11z"/>
<path d="M1315 4250 c3 -5 1 -10 -5 -10 -6 0 -8 -4 -5 -10 10 -17 25 -11 25
10 0 11 -5 20 -11 20 -5 0 -7 -4 -4 -10z"/>
<path d="M2323 4248 c-27 -13 -33 -54 -7 -44 9 3 22 6 30 6 8 0 14 10 14 25 0
27 -4 29 -37 13z"/>
<path d="M2477 4253 c-4 -3 -6 -22 -6 -42 1 -28 3 -30 6 -11 3 14 9 27 13 30
5 3 5 11 1 18 -4 7 -10 9 -14 5z"/>
<path d="M1710 4230 c0 -5 11 -10 25 -10 14 0 25 5 25 10 0 6 -11 10 -25 10
-14 0 -25 -4 -25 -10z"/>
<path d="M2390 4200 c0 -5 5 -10 10 -10 6 0 10 5 10 10 0 6 -4 10 -10 10 -5 0
-10 -4 -10 -10z"/>
<path d="M1376 4184 c-4 -9 -4 -19 -2 -21 8 -8 26 8 26 23 0 19 -16 18 -24 -2z"/>
<path d="M1715 4190 c3 -5 8 -10 11 -10 2 0 4 5 4 10 0 6 -5 10 -11 10 -5 0
-7 -4 -4 -10z"/>
<path d="M2906 4169 c-18 -35 -14 -49 14 -49 23 0 27 6 31 45 6 43 -24 46 -45
4z"/>
<path d="M1310 4175 c-8 -9 -8 -15 -2 -15 12 0 26 19 19 26 -2 2 -10 -2 -17
-11z"/>
<path d="M2065 4180 c3 -5 8 -10 11 -10 2 0 4 5 4 10 0 6 -5 10 -11 10 -5 0
-7 -4 -4 -10z"/>
<path d="M2328 4128 c-15 -24 -13 -58 3 -58 5 0 10 9 10 20 3 37 4 41 19 50
13 8 13 10 -1 10 -9 0 -23 -10 -31 -22z"/>
<path d="M2385 4140 c4 -6 11 -8 16 -5 14 9 11 15 -7 15 -8 0 -12 -5 -9 -10z"/>
<path d="M1273 4113 c-17 -36 -16 -48 2 -33 8 7 15 9 15 4 1 -14 30 28 30 43
0 24 -35 13 -47 -14z"/>
<path d="M1670 4124 c-11 -13 -10 -19 8 -37 28 -28 47 -12 33 26 -12 31 -23
34 -41 11z"/>
<path d="M2501 4112 c-15 -22 -18 -36 -13 -57 12 -45 29 -41 29 7 0 23 5 44
12 46 13 4 15 32 2 32 -5 0 -19 -13 -30 -28z"/>
<path d="M3405 4120 c-3 -5 1 -10 9 -10 9 0 16 5 16 10 0 6 -4 10 -9 10 -6 0
-13 -4 -16 -10z"/>
<path d="M2573 4107 c-17 -9 -19 -16 -12 -29 17 -30 159 -19 159 12 0 6 -19 9
-43 9 -23 -1 -52 3 -62 9 -15 7 -26 7 -42 -1z"/>
<path d="M1347 4093 c-11 -10 -8 -43 3 -43 6 0 10 4 10 9 0 5 3 16 6 25 6 16
-7 22 -19 9z"/>
<path d="M2132 4089 c2 -6 8 -10 13 -10 5 0 11 4 13 10 2 6 -4 11 -13 11 -9 0
-15 -5 -13 -11z"/>
<path d="M3633 4075 c-3 -9 -3 -18 0 -22 10 -10 37 6 37 22 0 20 -29 20 -37 0z"/>
<path d="M1840 4065 c0 -8 5 -15 10 -15 6 0 10 7 10 15 0 8 -4 15 -10 15 -5 0
-10 -7 -10 -15z"/>
<path d="M2280 4046 c0 -7 -7 -19 -15 -26 -18 -15 -20 -60 -2 -60 14 0 57 63
57 85 0 8 -9 15 -20 15 -11 0 -20 -6 -20 -14z"/>
<path d="M1667 4043 c-10 -10 -8 -33 3 -33 5 0 14 9 20 20 8 15 8 20 -3 20 -8
0 -17 -3 -20 -7z"/>
<path d="M2530 4034 c0 -8 8 -14 17 -14 15 0 14 -2 -3 -14 -15 -12 -17 -17 -6
-28 11 -11 14 -10 21 1 5 7 17 11 27 7 11 -3 26 -1 34 4 13 8 11 12 -10 27
-35 25 -80 34 -80 17z"/>
<path d="M2770 4035 c-16 -19 -30 -84 -20 -90 15 -10 38 7 50 35 7 16 18 31
26 34 8 3 14 12 14 21 0 20 -53 20 -70 0z"/>
<path d="M3695 4040 c-4 -7 -3 -16 3 -22 14 -14 45 -2 40 15 -6 16 -34 21 -43
7z"/>
<path d="M1282 4010 c0 -14 2 -19 5 -12 2 6 2 18 0 25 -3 6 -5 1 -5 -13z"/>
<path d="M2500 4001 c0 -6 5 -13 10 -16 6 -3 10 1 10 9 0 9 -4 16 -10 16 -5 0
-10 -4 -10 -9z"/>
<path d="M2190 3970 c0 -5 7 -10 15 -10 8 0 15 5 15 10 0 6 -7 10 -15 10 -8 0
-15 -4 -15 -10z"/>
<path d="M2050 3940 c0 -5 5 -10 10 -10 6 0 10 5 10 10 0 6 -4 10 -10 10 -5 0
-10 -4 -10 -10z"/>
<path d="M2334 3926 c-3 -14 -12 -27 -20 -30 -20 -8 -17 -36 4 -36 17 0 52 50
52 76 0 24 -29 16 -36 -10z"/>
<path d="M2515 3940 c3 -5 10 -10 16 -10 5 0 9 5 9 10 0 6 -7 10 -16 10 -8 0
-12 -4 -9 -10z"/>
<path d="M1650 3930 c0 -5 7 -10 15 -10 8 0 15 5 15 10 0 6 -7 10 -15 10 -8 0
-15 -4 -15 -10z"/>
<path d="M2471 3916 c-9 -11 -10 -20 -1 -35 15 -29 38 -26 52 5 10 21 9 27 -3
35 -20 13 -35 11 -48 -5z"/>
<path d="M2686 3895 c-16 -12 -17 -16 -3 -35 l14 -21 17 26 c25 39 8 58 -28
30z"/>
<path d="M1285 3889 c-4 -6 -5 -13 -2 -16 7 -7 27 6 27 18 0 12 -17 12 -25 -2z"/>
<path d="M2393 3884 c-3 -8 2 -23 11 -32 15 -15 16 -15 16 4 0 11 5 25 12 32
9 9 7 12 -10 12 -13 0 -25 -7 -29 -16z"/>
<path d="M2030 3870 c0 -5 7 -10 15 -10 8 0 15 5 15 10 0 6 -7 10 -15 10 -8 0
-15 -4 -15 -10z"/>
<path d="M2114 3855 c-10 -26 6 -38 27 -19 10 9 16 21 13 25 -8 14 -34 10 -40
-6z"/>
<path d="M2277 3832 c-9 -10 -17 -26 -17 -35 0 -9 -4 -17 -10 -17 -5 0 -10 -4
-10 -10 0 -19 31 -10 56 17 25 27 28 53 8 60 -6 2 -18 -5 -27 -15z"/>
<path d="M3516 3825 c-20 -14 -41 -25 -46 -25 -6 0 -10 -7 -10 -15 0 -8 -3
-15 -8 -15 -8 0 -35 -55 -38 -79 -2 -8 -8 -17 -14 -21 -16 -10 -25 -81 -11
-89 15 -9 -8 -87 -38 -129 -11 -17 -21 -35 -21 -41 0 -21 29 -11 49 17 12 15
26 34 33 42 8 9 12 40 12 82 -1 41 2 68 8 68 7 0 8 17 5 45 -6 42 -5 47 18 57
14 6 25 15 25 20 0 14 38 46 79 67 52 27 60 41 23 41 -16 0 -46 -11 -66 -25z"/>
<path d="M2480 3826 c0 -9 7 -16 16 -16 9 0 14 5 12 12 -6 18 -28 21 -28 4z"/>
<path d="M1240 3820 c0 -5 5 -10 11 -10 5 0 7 5 4 10 -3 6 -8 10 -11 10 -2 0
-4 -4 -4 -10z"/>
<path d="M3913 3802 c-7 -5 -15 -22 -19 -39 -8 -40 13 -53 26 -17 14 35 9 66
-7 56z"/>
<path d="M1640 3780 c0 -11 5 -20 10 -20 6 0 10 9 10 20 0 11 -4 20 -10 20 -5
0 -10 -9 -10 -20z"/>
<path d="M2573 3778 c-33 -73 -67 -138 -74 -138 -3 0 -14 -11 -23 -25 -21 -31
-13 -49 15 -35 26 14 26 -10 -1 -41 l-19 -24 -1 23 c0 32 -19 27 -26 -8 -4
-16 -13 -35 -20 -41 -8 -6 -14 -17 -14 -24 0 -7 -7 -18 -15 -25 -8 -7 -15 -23
-15 -35 0 -12 -6 -28 -14 -34 -8 -7 -18 -27 -22 -44 -7 -34 -31 -83 -51 -105
-7 -7 -13 -22 -13 -33 0 -11 -4 -27 -9 -37 -11 -19 -31 -103 -31 -126 0 -12 7
-14 33 -9 41 8 43 9 26 29 -11 13 -11 18 -1 21 7 3 12 22 12 48 0 24 5 47 11
51 6 3 8 16 5 29 -4 14 1 32 12 46 25 33 82 151 82 170 0 15 19 39 31 39 12 0
-18 -104 -40 -140 -11 -19 -21 -45 -21 -56 0 -12 -7 -27 -15 -34 -8 -7 -15
-27 -15 -45 0 -18 -6 -38 -14 -44 -9 -7 -14 -33 -15 -67 0 -47 2 -55 17 -52
11 3 16 12 15 27 -2 12 8 46 21 74 13 29 29 72 36 97 6 25 17 52 24 60 7 8 21
49 31 90 19 77 80 222 96 228 5 2 9 17 9 33 0 16 4 29 9 29 5 0 13 10 17 23 3
12 13 30 21 39 14 16 14 21 -1 53 -19 40 -38 45 -53 13z"/>
<path d="M3547 3772 c-31 -15 -55 -31 -53 -37 2 -5 9 -9 15 -7 20 4 26 4 63 3
29 -1 36 -4 31 -16 -3 -9 3 -25 13 -36 10 -12 19 -26 19 -32 1 -7 7 -32 15
-57 16 -52 15 -47 24 -205 4 -66 9 -121 11 -123 8 -8 27 11 36 35 7 20 15 24
34 21 15 -3 30 1 37 9 7 8 23 19 36 24 13 5 20 13 17 19 -4 7 -12 7 -25 0 -10
-5 -30 -10 -43 -10 -14 0 -30 -7 -38 -16 -11 -13 -13 -13 -21 0 -6 10 4 27 37
60 25 25 51 46 58 46 7 0 22 6 33 14 14 11 16 17 7 26 -9 10 -15 7 -29 -9 -10
-11 -27 -21 -37 -21 -10 0 -29 -11 -43 -25 -32 -32 -37 -32 -29 6 8 33 24 54
68 82 31 20 35 51 10 79 -15 17 -15 18 5 18 28 0 28 16 1 30 -19 11 -20 13 -4
30 21 23 12 40 -22 40 -15 0 -24 3 -20 6 3 3 24 3 46 -1 l41 -7 0 -54 c0 -30
-4 -54 -10 -54 -5 0 -10 -7 -10 -15 0 -8 5 -15 10 -15 6 0 10 -9 10 -21 0 -14
5 -19 17 -17 13 2 16 13 16 48 -1 25 3 59 9 77 9 26 8 34 -5 48 -10 9 -17 21
-17 26 0 5 -7 9 -15 9 -8 0 -15 5 -15 10 0 13 -67 13 -75 0 -3 -5 -28 -20 -54
-34 -36 -18 -52 -21 -60 -13 -13 13 -15 47 -2 47 5 0 11 9 14 20 7 28 -32 25
-106 -8z m193 -112 c0 -13 -45 -24 -66 -16 -8 3 -12 10 -9 16 8 13 75 13 75 0z"/>
<path d="M2180 3780 c0 -5 5 -10 11 -10 5 0 7 5 4 10 -3 6 -8 10 -11 10 -2 0
-4 -4 -4 -10z"/>
<path d="M2390 3783 c-8 -2 -21 -7 -29 -9 -10 -3 -11 -8 -4 -15 12 -12 63 5
63 21 0 11 -6 11 -30 3z"/>
<path d="M1205 3770 c-3 -5 1 -10 9 -10 9 0 16 5 16 10 0 6 -4 10 -9 10 -6 0
-13 -4 -16 -10z"/>
<path d="M1255 3770 c-3 -5 -1 -10 4 -10 6 0 11 5 11 10 0 6 -2 10 -4 10 -3 0
-8 -4 -11 -10z"/>
<path d="M2464 3769 c-3 -6 -1 -16 5 -22 8 -8 11 -5 11 11 0 24 -5 28 -16 11z"/>
<path d="M1160 3751 c0 -6 5 -13 10 -16 6 -3 10 1 10 9 0 9 -4 16 -10 16 -5 0
-10 -4 -10 -9z"/>
<path d="M1665 3730 c3 -5 8 -10 11 -10 2 0 4 5 4 10 0 6 -5 10 -11 10 -5 0
-7 -4 -4 -10z"/>
<path d="M2250 3730 c0 -5 5 -10 10 -10 6 0 10 5 10 10 0 6 -4 10 -10 10 -5 0
-10 -4 -10 -10z"/>
<path d="M2390 3686 c0 -9 7 -16 16 -16 9 0 14 5 12 12 -6 18 -28 21 -28 4z"/>
<path d="M1232 3678 c6 -18 28 -21 28 -4 0 9 -7 16 -16 16 -9 0 -14 -5 -12
-12z"/>
<path d="M2150 3680 c0 -5 5 -10 10 -10 6 0 10 5 10 10 0 6 -4 10 -10 10 -5 0
-10 -4 -10 -10z"/>
<path d="M2330 3669 c0 -24 23 -21 28 4 2 10 -3 17 -12 17 -10 0 -16 -9 -16
-21z"/>
<path d="M1156 3671 c-8 -12 32 -61 50 -61 22 0 17 20 -8 29 -14 5 -18 10 -10
15 7 4 10 12 7 17 -8 11 -32 12 -39 0z"/>
<path d="M1664 3659 c-3 -6 -1 -16 5 -22 8 -8 11 -5 11 11 0 24 -5 28 -16 11z"/>
<path d="M1746 3635 c4 -8 12 -15 20 -15 8 0 14 7 14 15 0 8 -9 15 -20 15 -13
0 -18 -5 -14 -15z"/>
<path d="M2380 3630 c0 -5 7 -10 15 -10 8 0 15 5 15 10 0 6 -7 10 -15 10 -8 0
-15 -4 -15 -10z"/>
<path d="M2300 3620 c0 -5 5 -10 10 -10 6 0 10 5 10 10 0 6 -4 10 -10 10 -5 0
-10 -4 -10 -10z"/>
<path d="M1240 3579 c0 -5 5 -7 10 -4 6 3 10 8 10 11 0 2 -4 4 -10 4 -5 0 -10
-5 -10 -11z"/>
<path d="M1690 3575 c0 -8 5 -15 10 -15 6 0 10 7 10 15 0 8 -4 15 -10 15 -5 0
-10 -7 -10 -15z"/>
<path d="M1180 3566 c0 -9 5 -16 10 -16 6 0 10 4 10 9 0 6 -4 13 -10 16 -5 3
-10 -1 -10 -9z"/>
<path d="M2240 3570 c0 -5 5 -10 11 -10 5 0 7 5 4 10 -3 6 -8 10 -11 10 -2 0
-4 -4 -4 -10z"/>
<path d="M655 3551 c-7 -12 32 -34 45 -26 6 3 10 13 10 21 0 16 -45 20 -55 5z"/>
<path d="M2352 3512 c-24 -48 -24 -52 -9 -52 16 0 67 54 67 71 0 22 -46 8 -58
-19z"/>
<path d="M1116 3522 c-3 -6 1 -13 10 -16 23 -9 28 -2 10 13 -8 7 -17 8 -20 3z"/>
<path d="M1210 3520 c0 -5 5 -10 10 -10 6 0 10 5 10 10 0 6 -4 10 -10 10 -5 0
-10 -4 -10 -10z"/>
<path d="M2267 3523 c-9 -9 -8 -25 2 -41 7 -12 12 -12 30 -1 25 16 27 34 5 43
-20 8 -29 8 -37 -1z"/>
<path d="M1166 3511 c-4 -5 -2 -12 4 -16 5 -3 10 -18 10 -33 0 -18 3 -23 11
-15 6 6 9 23 7 39 -3 28 -21 43 -32 25z"/>
<path d="M1290 3480 c0 -5 5 -10 10 -10 6 0 10 5 10 10 0 6 -4 10 -10 10 -5 0
-10 -4 -10 -10z"/>
<path d="M2228 3442 c-8 -9 -8 -16 1 -25 14 -14 44 1 49 24 3 19 -35 20 -50 1z"/>
<path d="M600 3430 c0 -22 8 -25 30 -10 13 9 13 11 0 20 -22 15 -30 12 -30
-10z"/>
<path d="M1630 3436 c0 -9 5 -16 10 -16 6 0 10 4 10 9 0 6 -4 13 -10 16 -5 3
-10 -1 -10 -9z"/>
<path d="M1142 3423 c2 -9 8 -18 15 -20 7 -3 9 3 6 16 -6 25 -26 28 -21 4z"/>
<path d="M2290 3430 c0 -5 5 -10 10 -10 6 0 10 5 10 10 0 6 -4 10 -10 10 -5 0
-10 -4 -10 -10z"/>
<path d="M690 3405 c0 -27 17 -34 26 -10 4 8 12 15 20 15 8 0 14 5 14 10 0 6
-13 10 -30 10 -25 0 -30 -4 -30 -25z"/>
<path d="M1665 3390 c3 -5 8 -10 11 -10 2 0 4 5 4 10 0 6 -5 10 -11 10 -5 0
-7 -4 -4 -10z"/>
<path d="M2230 3385 c0 -8 5 -15 10 -15 6 0 10 7 10 15 0 8 -4 15 -10 15 -5 0
-10 -7 -10 -15z"/>
<path d="M3340 3378 c0 -7 -3 -22 -6 -33 -6 -25 36 -75 63 -75 13 0 14 3 5 12
-7 7 -12 20 -12 29 0 9 -7 20 -16 23 -13 5 -14 9 -4 21 6 8 9 19 5 25 -9 14
-35 13 -35 -2z"/>
<path d="M1155 3350 c-17 -19 -15 -50 3 -50 9 0 26 60 19 67 -2 2 -12 -6 -22
-17z"/>
<path d="M1657 3363 c-4 -3 -7 -11 -7 -17 0 -6 5 -5 12 2 6 6 9 14 7 17 -3 3
-9 2 -12 -2z"/>
<path d="M2266 3318 c-14 -29 -26 -61 -26 -72 1 -21 1 -21 15 -1 8 11 24 31
35 43 21 25 27 67 11 76 -5 4 -21 -17 -35 -46z"/>
<path d="M3266 3361 c-4 -5 -2 -12 3 -15 5 -4 12 -2 15 3 4 5 2 12 -3 15 -5 4
-12 2 -15 -3z"/>
<path d="M3400 3350 c0 -5 7 -10 15 -10 8 0 15 5 15 10 0 6 -7 10 -15 10 -8 0
-15 -4 -15 -10z"/>
<path d="M622 3338 c6 -18 28 -21 28 -4 0 9 -7 16 -16 16 -9 0 -14 -5 -12 -12z"/>
<path d="M1196 3312 c-3 -6 -1 -14 5 -17 15 -10 25 3 12 16 -7 7 -13 7 -17 1z"/>
<path d="M3172 3298 c-19 -19 -14 -28 18 -28 32 0 42 23 14 34 -20 8 -18 8
-32 -6z"/>
<path d="M3769 3294 c-10 -13 -10 -17 0 -24 11 -6 10 -13 -2 -36 -9 -16 -21
-58 -27 -94 -17 -102 -20 -114 -41 -140 l-19 -25 6 35 c4 19 11 43 16 53 5 9
10 40 11 67 1 28 5 50 10 50 11 0 8 25 -5 38 -19 19 -48 -15 -48 -55 0 -19 -4
-42 -9 -52 -5 -9 -12 -58 -16 -109 -8 -119 -24 -158 -67 -167 -66 -13 -112
-44 -94 -62 9 -10 77 -5 90 6 8 7 18 11 22 10 23 -4 34 3 34 19 0 21 18 42 36
42 16 0 7 -103 -11 -140 -29 -58 -35 -77 -38 -120 -1 -25 -5 -49 -8 -55 -4 -5
-10 -32 -13 -60 -10 -66 -25 -124 -41 -155 -7 -14 -16 -58 -19 -99 -5 -57 -11
-78 -26 -88 -11 -8 -23 -36 -30 -70 -7 -31 -21 -76 -31 -100 -10 -25 -19 -55
-19 -68 0 -12 -7 -28 -15 -35 -11 -9 -12 -16 -5 -25 8 -9 8 -15 0 -20 -5 -3
-10 -14 -10 -24 0 -10 -7 -32 -15 -47 -8 -16 -15 -39 -15 -51 0 -12 -4 -24 -9
-27 -5 -3 -11 -16 -13 -28 -3 -13 -17 -66 -31 -119 -14 -52 -29 -126 -33 -163
-4 -36 -11 -69 -15 -72 -5 -3 -9 -15 -9 -27 0 -12 -6 -33 -13 -47 -7 -14 -21
-52 -31 -85 -10 -33 -22 -68 -27 -77 -5 -10 -9 -25 -9 -33 0 -8 -7 -15 -15
-15 -8 0 -15 -6 -15 -14 0 -7 -3 -28 -6 -45 -6 -27 -4 -31 12 -25 18 5 18 5 2
-9 -10 -8 -18 -27 -18 -44 0 -16 -5 -34 -11 -40 -5 -5 -10 -29 -11 -51 0 -23
-6 -46 -13 -52 -7 -6 -11 -29 -10 -58 3 -56 -9 -92 -30 -92 -11 0 -14 6 -10
23 4 13 -1 45 -10 71 -12 35 -14 51 -6 59 16 16 13 27 -6 27 -20 0 -46 -47
-36 -63 3 -6 6 -26 5 -46 -1 -20 5 -43 15 -53 13 -14 13 -20 3 -33 -8 -10 -9
-15 -1 -15 6 0 11 5 11 10 0 6 5 10 10 10 6 0 8 -11 4 -26 -6 -25 -5 -26 26
-19 25 5 31 4 28 -6 -3 -8 -15 -13 -27 -12 -23 3 -26 -10 -15 -66 5 -24 12
-31 31 -31 21 0 24 -4 21 -37 -2 -22 -11 -44 -21 -51 -9 -7 -15 -17 -12 -22 3
-5 1 -18 -4 -28 -7 -13 -6 -23 2 -31 7 -7 12 -24 12 -39 0 -23 6 -29 45 -41
24 -8 52 -24 62 -35 16 -20 15 -22 -9 -42 -30 -24 -25 -43 10 -37 15 3 33 22
51 54 25 45 26 50 9 55 -18 6 -35 12 -86 33 -46 18 -72 111 -32 111 21 0 40
-29 27 -42 -15 -15 13 -48 39 -48 29 0 31 16 4 48 -14 16 -25 33 -25 37 0 4
-9 18 -20 32 -15 20 -17 29 -9 45 13 24 -7 75 -33 81 -25 7 -22 27 3 27 20 0
21 4 16 49 -4 31 -2 52 6 60 8 8 9 16 0 29 -8 14 -7 23 3 37 8 10 14 29 14 42
0 12 11 48 25 79 14 31 25 68 25 83 0 39 24 119 53 182 15 31 27 64 27 73 0
10 9 30 20 44 15 18 19 34 15 54 -5 20 0 37 16 59 18 26 22 46 23 114 1 46 4
87 9 91 4 4 7 27 7 51 0 24 6 56 14 71 7 15 16 47 20 71 4 26 15 50 25 58 13
9 21 31 26 75 4 35 12 69 17 75 6 7 7 24 4 37 -4 16 1 37 13 58 10 19 21 52
25 73 4 22 9 56 13 75 3 19 14 47 24 62 11 14 19 41 19 60 0 18 7 46 15 62 8
15 20 58 26 95 15 92 25 145 44 221 8 36 20 90 25 120 6 30 13 64 15 75 3 11
9 47 14 80 16 102 30 164 44 192 8 16 18 54 21 85 4 32 12 60 17 63 5 4 6 17
3 30 -3 12 -1 26 5 30 14 8 5 25 -13 25 -8 0 -19 -7 -27 -16z m-88 -407 c-16
-16 -26 0 -10 19 9 11 15 12 17 4 2 -6 -1 -17 -7 -23z"/>
<path d="M3250 3290 c0 -12 8 -12 35 0 18 8 17 9 -7 9 -16 1 -28 -3 -28 -9z"/>
<path d="M615 3280 c-3 -5 1 -13 10 -16 22 -9 29 1 11 15 -10 8 -16 9 -21 1z"/>
<path d="M3430 3275 c0 -11 5 -27 10 -35 8 -12 10 -12 10 5 0 11 -5 27 -10 35
-8 12 -10 12 -10 -5z"/>
<path d="M502 3263 c-7 -12 -12 -31 -12 -42 0 -12 -6 -21 -14 -21 -8 0 -18 -9
-21 -20 -3 -11 -11 -20 -16 -20 -6 0 -9 -32 -7 -77 2 -61 6 -78 18 -78 11 0
14 10 12 38 -2 27 1 37 12 37 8 0 18 -4 21 -10 13 -20 35 -10 35 16 0 21 -4
25 -20 21 -20 -5 -45 15 -33 26 3 4 17 7 31 7 22 0 23 3 17 39 -5 31 -3 40 12
45 16 7 16 9 2 19 -9 7 -18 19 -21 27 -4 12 -7 10 -16 -7z"/>
<path d="M1766 3271 c-4 -7 -5 -15 -2 -18 9 -9 19 4 14 18 -4 11 -6 11 -12 0z"/>
<path d="M565 3240 c3 -5 8 -10 11 -10 2 0 4 5 4 10 0 6 -5 10 -11 10 -5 0 -7
-4 -4 -10z"/>
<path d="M593 3225 c-3 -9 -3 -18 0 -21 9 -9 27 6 27 22 0 19 -19 18 -27 -1z"/>
<path d="M690 3230 c0 -5 5 -10 10 -10 6 0 10 5 10 10 0 6 -4 10 -10 10 -5 0
-10 -4 -10 -10z"/>
<path d="M1096 3215 c-3 -8 -1 -15 4 -15 13 0 22 18 11 24 -5 3 -11 -1 -15 -9z"/>
<path d="M3190 3222 c0 -17 47 -52 68 -52 22 0 41 25 29 37 -4 3 -18 6 -32 6
-14 0 -28 3 -31 8 -7 11 -34 12 -34 1z"/>
<path d="M1205 3210 c-3 -5 -1 -10 4 -10 6 0 11 5 11 10 0 6 -2 10 -4 10 -3 0
-8 -4 -11 -10z"/>
<path d="M3323 3173 c1 -32 19 -44 32 -23 3 6 2 10 -3 10 -5 0 -14 10 -20 23
-10 20 -11 20 -9 -10z"/>
<path d="M1710 3180 c0 -5 5 -10 10 -10 6 0 10 5 10 10 0 6 -4 10 -10 10 -5 0
-10 -4 -10 -10z"/>
<path d="M1180 3170 c0 -5 5 -10 11 -10 5 0 7 5 4 10 -3 6 -8 10 -11 10 -2 0
-4 -4 -4 -10z"/>
<path d="M1112 3161 c-10 -6 -10 -10 3 -21 13 -11 15 -9 15 9 0 24 0 24 -18
12z"/>
<path d="M620 3120 c0 -11 4 -20 9 -20 5 0 7 9 4 20 -3 11 -7 20 -9 20 -2 0
-4 -9 -4 -20z"/>
<path d="M1740 3116 c0 -9 5 -16 10 -16 6 0 10 4 10 9 0 6 -4 13 -10 16 -5 3
-10 -1 -10 -9z"/>
<path d="M1180 3085 c0 -9 5 -15 11 -13 6 2 11 8 11 13 0 5 -5 11 -11 13 -6 2
-11 -4 -11 -13z"/>
<path d="M593 3074 c-3 -8 -1 -20 5 -26 7 -7 7 -16 -1 -30 -10 -15 -9 -20 3
-28 19 -12 46 8 30 24 -16 16 -12 33 10 39 13 3 18 10 14 21 -8 21 -53 21 -61
0z"/>
<path d="M355 3057 c-8 -13 -18 -37 -21 -55 -4 -17 -13 -37 -20 -43 -8 -6 -14
-16 -14 -22 0 -6 -7 -17 -15 -26 -35 -36 -95 -126 -95 -143 0 -9 -11 -25 -25
-34 -14 -9 -25 -20 -25 -23 0 -4 27 -8 60 -8 59 0 60 1 60 28 0 15 5 29 11 31
9 3 9 9 1 24 -16 30 12 71 35 52 14 -11 15 -10 9 10 -5 13 -3 22 3 22 6 0 11
10 11 22 0 12 9 31 19 42 18 20 41 146 27 146 -3 0 -12 -10 -21 -23z m-122
-287 c-3 -12 -8 -19 -11 -16 -5 6 5 36 12 36 2 0 2 -9 -1 -20z"/>
<path d="M500 3040 c0 -5 5 -10 10 -10 6 0 10 5 10 10 0 6 -4 10 -10 10 -5 0
-10 -4 -10 -10z"/>
<path d="M499 3002 c-8 -10 -19 -27 -24 -37 -8 -19 -9 -19 -13 3 -2 13 -9 21
-15 19 -18 -6 -19 -40 -1 -62 14 -18 16 -18 27 -4 7 9 15 17 20 17 4 1 8 5 9
10 0 4 8 12 17 18 11 9 13 17 6 33 -10 21 -11 21 -26 3z"/>
<path d="M1095 2999 c-11 -17 1 -21 15 -4 8 9 8 15 2 15 -6 0 -14 -5 -17 -11z"/>
<path d="M2291 2989 c-17 -7 -21 -13 -14 -20 15 -15 58 -7 58 10 0 19 -14 22
-44 10z"/>
<path d="M1650 2980 c0 -5 7 -10 15 -10 8 0 15 5 15 10 0 6 -7 10 -15 10 -8 0
-15 -4 -15 -10z"/>
<path d="M1732 2966 c-8 -19 -8 -27 3 -36 11 -9 16 -7 25 10 12 22 7 50 -8 50
-5 0 -14 -11 -20 -24z"/>
<path d="M2294 2924 c3 -9 6 -20 6 -25 0 -5 5 -9 10 -9 6 0 10 11 10 25 0 16
-6 25 -16 25 -11 0 -14 -5 -10 -16z"/>
<path d="M465 2890 c3 -6 -1 -13 -9 -16 -25 -10 -19 -24 10 -24 15 0 23 4 19
10 -4 6 -1 17 5 25 10 12 9 15 -9 15 -12 0 -19 -4 -16 -10z"/>
<path d="M1180 2890 c0 -5 4 -10 9 -10 6 0 13 5 16 10 3 6 -1 10 -9 10 -9 0
-16 -4 -16 -10z"/>
<path d="M1757 2894 c-8 -8 1 -24 14 -24 5 0 9 7 9 15 0 15 -12 20 -23 9z"/>
<path d="M1290 2870 c0 -5 5 -10 10 -10 6 0 10 5 10 10 0 6 -4 10 -10 10 -5 0
-10 -4 -10 -10z"/>
<path d="M330 2842 c0 -5 9 -12 21 -15 13 -3 19 -1 16 6 -5 15 -37 22 -37 9z"/>
<path d="M1180 2825 c0 -17 2 -18 24 -9 23 9 20 24 -4 24 -11 0 -20 -7 -20
-15z"/>
<path d="M440 2821 c0 -5 9 -19 21 -32 16 -19 19 -20 15 -6 -3 10 -6 25 -6 33
0 8 -7 14 -15 14 -8 0 -15 -4 -15 -9z"/>
<path d="M505 2811 c-3 -5 -1 -12 5 -16 5 -3 10 1 10 9 0 18 -6 21 -15 7z"/>
<path d="M677 2813 c-2 -5 -1 -17 4 -28 8 -21 8 -21 14 7 3 19 -10 34 -18 21z"/>
<path d="M375 2764 c3 -38 15 -64 27 -64 14 0 1 61 -16 78 -12 12 -13 10 -11
-14z"/>
<path d="M1080 2780 c0 -5 7 -10 16 -10 8 0 12 5 9 10 -3 6 -10 10 -16 10 -5
0 -9 -4 -9 -10z"/>
<path d="M615 2770 c-11 -17 5 -32 21 -19 7 6 11 15 8 20 -7 12 -21 11 -29 -1z"/>
<path d="M1282 2756 c1 -10 8 -17 13 -17 15 1 12 24 -3 29 -9 3 -13 -2 -10
-12z"/>
<path d="M3440 2745 c-9 -11 -10 -45 -4 -137 7 -111 12 -268 13 -387 0 -24 -4
-52 -10 -62 -5 -10 -6 -25 -3 -34 6 -14 9 -13 26 5 18 19 21 39 24 182 3 104
0 165 -6 174 -8 8 -8 14 -1 18 6 4 10 40 9 81 -1 60 2 78 17 95 18 20 18 21
-3 36 -12 8 -22 22 -22 30 0 18 -24 18 -40 -1z"/>
<path d="M1760 2721 c0 -35 7 -40 40 -30 17 5 19 7 7 8 -10 1 -16 5 -13 10 9
14 -4 41 -20 41 -9 0 -14 -11 -14 -29z"/>
<path d="M350 2705 c-14 -16 -10 -18 14 -9 9 3 16 10 16 15 0 14 -16 11 -30
-6z"/>
<path d="M2190 2682 c0 -10 22 -32 32 -32 4 0 8 9 8 20 0 13 -7 20 -20 20 -11
0 -20 -4 -20 -8z"/>
<path d="M200 2661 c0 -11 -4 -23 -10 -26 -12 -7 -14 -55 -2 -55 4 0 13 5 20
12 14 14 16 88 2 88 -5 0 -10 -9 -10 -19z"/>
<path d="M1270 2670 c0 -5 7 -10 15 -10 8 0 15 5 15 10 0 6 -7 10 -15 10 -8 0
-15 -4 -15 -10z"/>
<path d="M1700 2670 c0 -5 5 -10 10 -10 6 0 10 5 10 10 0 6 -4 10 -10 10 -5 0
-10 -4 -10 -10z"/>
<path d="M260 2655 c-10 -12 -10 -15 4 -15 9 0 16 7 16 15 0 8 -2 15 -4 15 -2
0 -9 -7 -16 -15z"/>
<path d="M314 2659 c-3 -6 -1 -16 5 -22 8 -8 11 -5 11 11 0 24 -5 28 -16 11z"/>
<path d="M412 2648 c-17 -17 -15 -38 3 -38 9 0 15 9 15 25 0 29 -1 30 -18 13z"/>
<path d="M100 2641 c0 -5 -7 -17 -16 -26 -9 -9 -17 -31 -19 -51 -1 -19 -5 -37
-8 -41 -4 -3 -1 -13 5 -21 20 -24 38 -85 32 -109 -5 -18 -1 -23 20 -29 24 -6
26 -11 27 -58 1 -28 1 -58 0 -68 -2 -22 17 -32 33 -19 7 6 22 8 31 4 15 -5 17
-3 12 11 -4 10 -7 24 -7 31 0 8 -7 21 -15 29 -13 13 -14 20 -4 38 10 19 8 24
-11 40 -13 11 -29 17 -37 14 -15 -6 -18 20 -3 29 7 4 8 11 2 18 -17 21 -34
128 -27 173 4 29 2 44 -4 44 -6 0 -11 -4 -11 -9z"/>
<path d="M1824 2638 c-15 -23 -13 -38 5 -38 11 0 17 7 16 20 -2 26 -11 34 -21
18z"/>
<path d="M2656 2643 c-11 -11 -6 -23 9 -23 8 0 15 4 15 9 0 13 -16 22 -24 14z"/>
<path d="M1247 2623 c-12 -11 -8 -31 8 -37 11 -4 15 1 15 19 0 24 -10 32 -23
18z"/>
<path d="M2800 2616 c0 -8 3 -17 8 -19 9 -6 33 19 25 27 -12 11 -33 6 -33 -8z"/>
<path d="M246 2595 c-8 -21 1 -35 20 -35 10 0 14 8 12 22 -4 27 -23 34 -32 13z"/>
<path d="M2840 2581 c0 -15 6 -21 21 -21 14 0 19 5 17 17 -5 26 -38 29 -38 4z"/>
<path d="M1080 2574 c0 -8 5 -12 10 -9 6 4 8 11 5 16 -9 14 -15 11 -15 -7z"/>
<path d="M1765 2580 c3 -5 8 -10 11 -10 2 0 4 5 4 10 0 6 -5 10 -11 10 -5 0
-7 -4 -4 -10z"/>
<path d="M1866 2565 c-19 -28 -36 -33 -36 -9 0 9 -6 14 -12 11 -16 -5 -13 -53
4 -85 9 -18 9 -25 0 -31 -15 -9 -14 -110 1 -128 6 -9 6 -18 -2 -26 -8 -11 -6
-18 9 -32 27 -25 25 -37 -5 -29 -29 7 -34 -11 -10 -42 19 -26 20 -55 0 -48
-10 4 -15 0 -15 -15 0 -14 6 -21 20 -21 12 0 20 -7 20 -16 0 -10 6 -14 14 -11
10 4 13 1 10 -8 -3 -8 -15 -17 -25 -20 -16 -5 -19 -14 -17 -38 2 -26 7 -32 25
-30 11 1 24 -4 27 -12 7 -20 -12 -29 -30 -14 -20 17 -44 -5 -26 -23 7 -7 12
-40 12 -79 0 -40 6 -78 15 -95 8 -16 15 -38 15 -48 0 -11 4 -33 10 -50 5 -17
12 -51 15 -76 8 -64 19 -79 46 -62 18 11 23 11 30 1 11 -19 0 -32 -17 -18 -11
9 -14 7 -14 -12 0 -14 -9 -30 -20 -37 -23 -14 -18 -32 8 -32 14 0 17 -8 13
-47 -2 -27 -8 -54 -13 -61 -8 -9 -2 -24 18 -54 16 -22 34 -48 39 -57 6 -9 13
-18 17 -21 10 -8 2 -48 -15 -74 -14 -20 -12 -23 25 -41 37 -18 40 -18 56 -1
16 16 16 18 -3 32 -16 12 -20 25 -18 62 1 25 -3 52 -8 58 -5 6 -11 29 -13 50
-2 22 -11 55 -19 75 -9 20 -14 45 -11 56 3 12 1 24 -5 27 -7 5 -8 14 -2 24 7
15 7 49 -3 167 -1 17 -9 46 -18 65 -8 19 -12 40 -8 45 3 6 7 37 9 71 1 45 -2
64 -14 74 -11 9 -14 22 -9 46 4 21 2 40 -6 49 -8 9 -13 44 -12 88 0 39 -4 77
-8 82 -15 20 -21 67 -10 80 8 9 8 20 2 32 -5 10 -10 34 -11 53 -6 133 -9 162
-19 172 -17 17 -15 38 3 38 10 0 15 11 15 35 0 42 -3 43 -24 10z m9 -395 c-3
-5 -11 -10 -16 -10 -6 0 -7 5 -4 10 3 6 11 10 16 10 6 0 7 -4 4 -10z m13 -279
c7 -21 12 -57 12 -80 0 -34 -3 -42 -16 -39 -14 2 -17 18 -19 81 -3 84 5 98 23
38z m57 -321 c3 -5 1 -10 -4 -10 -6 0 -11 5 -11 10 0 6 2 10 4 10 3 0 8 -4 11
-10z"/>
<path d="M2748 2583 c-22 -6 -23 -19 -3 -27 8 -3 15 -1 15 4 0 6 9 10 20 10
11 0 20 5 20 10 0 10 -21 11 -52 3z"/>
<path d="M3150 2575 c0 -21 24 -45 45 -45 26 0 42 17 29 30 -12 10 -74 23 -74
15z"/>
<path d="M202 2524 c4 -22 26 -28 48 -15 18 12 13 17 -24 27 -24 6 -27 4 -24
-12z"/>
<path d="M1750 2515 c0 -8 5 -15 10 -15 6 0 10 7 10 15 0 8 -4 15 -10 15 -5 0
-10 -7 -10 -15z"/>
<path d="M304 2495 c-20 -31 -15 -38 19 -30 26 7 42 29 31 46 -10 17 -33 9
-50 -16z"/>
<path d="M475 2511 c-6 -11 9 -23 19 -14 9 9 7 23 -3 23 -6 0 -12 -4 -16 -9z"/>
<path d="M3205 2507 c-13 -11 -15 -16 -6 -22 7 -4 18 -2 24 4 6 6 7 11 2 11
-6 0 -3 5 5 10 8 5 10 10 4 10 -5 0 -18 -6 -29 -13z"/>
<path d="M2767 2503 c-15 -14 -6 -33 16 -33 12 0 31 -7 41 -15 18 -14 16 -15
-27 -16 -70 -2 -72 -3 -72 -19 0 -10 11 -14 38 -13 20 0 40 -3 43 -8 3 -5 18
-2 34 6 24 12 28 20 27 52 -2 38 -2 38 -41 35 -21 -2 -42 2 -46 8 -3 5 -9 7
-13 3z"/>
<path d="M3245 2501 c-7 -12 12 -24 25 -16 11 7 4 25 -10 25 -5 0 -11 -4 -15
-9z"/>
<path d="M430 2486 c0 -9 7 -16 16 -16 9 0 14 5 12 12 -6 18 -28 21 -28 4z"/>
<path d="M2634 2489 c-10 -17 13 -36 27 -22 12 12 4 33 -11 33 -5 0 -12 -5
-16 -11z"/>
<path d="M5 2470 c-3 -5 1 -10 9 -10 9 0 16 5 16 10 0 6 -4 10 -9 10 -6 0 -13
-4 -16 -10z"/>
<path d="M194 2468 c-4 -7 -2 -14 4 -16 7 -2 10 -13 6 -26 -3 -14 1 -27 10
-35 14 -12 16 -10 16 12 0 14 5 29 11 32 5 4 9 14 7 22 -4 19 -44 27 -54 11z"/>
<path d="M2550 2470 c0 -5 9 -10 20 -10 11 0 20 5 20 10 0 6 -9 10 -20 10 -11
0 -20 -4 -20 -10z"/>
<path d="M1265 2460 c-10 -16 3 -27 30 -27 30 0 31 5 8 23 -22 16 -30 17 -38
4z"/>
<path d="M311 2410 c-20 -36 -21 -44 -9 -70 12 -28 36 -36 30 -10 -1 7 2 17 7
24 14 16 18 88 5 93 -5 2 -20 -15 -33 -37z"/>
<path d="M393 2428 c2 -7 10 -13 17 -13 7 0 15 6 18 13 2 7 -5 12 -18 12 -13
0 -20 -5 -17 -12z"/>
<path d="M2107 2413 c-12 -11 -8 -23 8 -23 8 0 15 7 15 15 0 16 -12 20 -23 8z"/>
<path d="M500 2390 c0 -5 5 -10 10 -10 6 0 10 5 10 10 0 6 -4 10 -10 10 -5 0
-10 -4 -10 -10z"/>
<path d="M560 2380 c0 -5 5 -10 10 -10 6 0 10 5 10 10 0 6 -4 10 -10 10 -5 0
-10 -4 -10 -10z"/>
<path d="M360 2370 c0 -5 14 -10 30 -10 17 0 30 5 30 10 0 6 -13 10 -30 10
-16 0 -30 -4 -30 -10z"/>
<path d="M2755 2370 c-3 -5 -4 -14 -1 -19 9 -13 46 -1 46 15 0 16 -36 19 -45
4z"/>
<path d="M2830 2370 c0 -5 5 -10 11 -10 5 0 7 5 4 10 -3 6 -8 10 -11 10 -2 0
-4 -4 -4 -10z"/>
<path d="M1227 2364 c-3 -3 -3 -12 0 -20 4 -11 9 -12 19 -3 8 6 14 15 14 20 0
10 -24 12 -33 3z"/>
<path d="M400 2326 c0 -18 16 -29 30 -21 13 8 1 35 -16 35 -8 0 -14 -6 -14
-14z"/>
<path d="M542 2323 c5 -25 28 -28 28 -4 0 12 -6 21 -16 21 -9 0 -14 -7 -12
-17z"/>
<path d="M0 2288 c0 -24 7 -53 15 -64 14 -17 15 -14 13 40 -4 72 -28 93 -28
24z"/>
<path d="M230 2320 c0 -5 7 -10 15 -10 8 0 15 5 15 10 0 6 -7 10 -15 10 -8 0
-15 -4 -15 -10z"/>
<path d="M2802 2318 c-20 -20 -14 -26 21 -24 50 5 50 5 37 21 -15 18 -42 19
-58 3z"/>
<path d="M2713 2313 c-7 -2 -13 -11 -13 -19 0 -11 5 -11 25 -2 39 18 28 38
-12 21z"/>
<path d="M505 2293 c-4 -13 -12 -23 -17 -23 -5 0 -6 5 -3 10 3 6 -3 10 -13 10
-11 0 -22 -7 -26 -15 -3 -8 -9 -15 -13 -14 -20 3 -24 -2 -13 -16 7 -8 16 -12
22 -9 5 3 20 -2 34 -11 22 -14 25 -22 20 -49 -4 -20 0 -47 9 -69 l15 -37 21
21 c16 16 19 27 13 52 -3 18 -11 37 -16 44 -5 6 -8 20 -7 30 1 10 -1 25 -4 33
-3 8 -8 26 -10 40 -4 25 -4 25 -12 3z"/>
<path d="M1235 2279 c-4 -6 -1 -15 6 -20 21 -13 31 -11 27 8 -4 20 -24 28 -33
12z"/>
<path d="M580 2270 c0 -5 5 -10 11 -10 5 0 7 5 4 10 -3 6 -8 10 -11 10 -2 0
-4 -4 -4 -10z"/>
<path d="M1215 2230 c4 -6 11 -8 16 -5 14 9 11 15 -7 15 -8 0 -12 -5 -9 -10z"/>
<path d="M1124 2214 c3 -9 6 -18 6 -20 0 -2 7 -4 15 -4 18 0 19 12 3 28 -17
17 -31 15 -24 -4z"/>
<path d="M215 2210 c-3 -5 3 -10 15 -10 12 0 18 5 15 10 -3 6 -10 10 -15 10
-5 0 -12 -4 -15 -10z"/>
<path d="M325 2201 c-10 -17 12 -21 25 -6 10 12 10 15 -3 15 -9 0 -18 -4 -22
-9z"/>
<path d="M466 2201 c-4 -5 -2 -12 3 -15 5 -4 12 -2 15 3 4 5 2 12 -3 15 -5 4
-12 2 -15 -3z"/>
<path d="M22 2190 c-29 -12 -28 -28 2 -36 22 -5 23 -9 15 -37 -5 -17 -7 -39
-4 -48 3 -8 -4 -24 -15 -34 -14 -13 -20 -30 -20 -59 l1 -41 22 25 c12 14 31
27 42 28 29 6 32 12 11 27 -10 8 -15 19 -11 25 5 8 11 8 22 -1 38 -32 40 55 3
101 -12 14 -23 33 -27 43 -6 19 -9 20 -41 7z"/>
<path d="M400 2175 c0 -10 7 -15 18 -13 21 4 19 22 -2 26 -10 2 -16 -3 -16
-13z"/>
<path d="M1240 2176 c0 -9 7 -16 16 -16 17 0 14 22 -4 28 -7 2 -12 -3 -12 -12z"/>
<path d="M158 2173 c-20 -5 -23 -18 -8 -28 15 -9 52 5 47 18 -4 13 -16 16 -39
10z"/>
<path d="M1124 2117 c3 -10 6 -24 6 -30 0 -8 4 -7 12 1 10 10 8 16 -6 30 -18
16 -19 16 -12 -1z"/>
<path d="M1314 2122 c-6 -4 -16 -49 -22 -100 -6 -50 -18 -102 -26 -113 -10
-15 -12 -28 -6 -45 6 -14 6 -26 0 -29 -6 -4 -10 -46 -10 -94 0 -64 -4 -92 -14
-100 -10 -9 -12 -21 -6 -44 5 -18 12 -77 16 -132 4 -55 8 -102 9 -105 1 -3 7
-18 13 -33 7 -16 12 -35 12 -43 0 -16 16 -19 25 -4 12 20 36 11 33 -12 -2 -19
-8 -22 -31 -20 -23 3 -28 0 -25 -15 2 -12 14 -19 36 -21 26 -3 32 -8 32 -27 0
-24 0 -24 -29 -7 -33 18 -48 12 -36 -15 5 -10 10 -52 12 -92 3 -41 9 -83 14
-93 6 -10 7 -27 4 -38 -9 -29 13 -34 35 -8 26 32 42 13 38 -47 l-3 -47 -26 21
c-20 15 -29 17 -37 9 -17 -17 -15 -48 3 -54 20 -8 19 -38 -1 -55 -15 -12 -14
-14 7 -19 28 -7 87 4 101 18 6 6 7 16 2 24 -11 17 -17 47 -16 76 1 12 2 30 2
40 3 66 -24 172 -44 172 -7 0 -21 6 -32 14 -19 15 -19 15 4 38 16 17 22 19 22
7 0 -8 7 -24 15 -35 11 -14 14 -15 9 -3 -3 10 0 20 6 24 8 5 8 10 0 20 -7 8
-10 18 -7 22 2 4 -2 42 -10 83 -15 79 -20 110 -22 149 -1 21 -5 23 -31 18 -27
-6 -30 -4 -30 18 0 15 6 25 14 25 24 0 36 24 27 56 -9 35 -22 37 -36 7 -11
-26 -25 -30 -25 -9 0 7 14 28 32 45 31 31 32 31 19 79 -6 27 -11 64 -9 84 1
20 -4 43 -11 52 -11 13 -11 19 -1 31 7 8 10 22 6 31 -3 8 -1 24 4 35 14 26 9
271 -6 261z"/>
<path d="M1251 2096 c-7 -9 -8 -22 -3 -37 7 -18 5 -27 -7 -36 -9 -6 -12 -15
-8 -20 14 -14 37 29 37 69 0 42 -2 45 -19 24z"/>
<path d="M666 2084 c-7 -19 2 -36 17 -31 15 5 16 47 1 47 -6 0 -15 -7 -18 -16z"/>
<path d="M544 2076 c-3 -8 4 -33 15 -57 14 -28 18 -46 11 -54 -12 -14 -3 -26
15 -19 7 3 16 1 20 -5 3 -6 17 -11 29 -11 19 0 24 5 24 26 0 14 -7 28 -14 31
-8 3 -14 15 -14 26 0 16 -3 18 -12 9 -8 -8 -8 -15 2 -27 14 -17 8 -31 -10 -20
-7 4 -10 19 -7 33 10 50 -43 110 -59 68z"/>
<path d="M1165 2069 c-10 -14 -1 -21 19 -13 9 3 13 10 10 15 -7 12 -21 11 -29
-2z"/>
<path d="M1115 2040 c3 -5 8 -10 11 -10 2 0 4 5 4 10 0 6 -5 10 -11 10 -5 0
-7 -4 -4 -10z"/>
<path d="M154 2019 c-3 -6 1 -18 9 -27 13 -13 19 -13 31 -2 9 7 16 19 16 26 0
17 -46 19 -56 3z"/>
<path d="M704 2019 c-10 -17 23 -46 38 -31 8 8 8 15 -2 27 -15 18 -26 19 -36
4z"/>
<path d="M3370 2020 c0 -5 5 -10 10 -10 6 0 10 5 10 10 0 6 -4 10 -10 10 -5 0
-10 -4 -10 -10z"/>
<path d="M101 1983 c-19 -8 -51 -41 -51 -53 0 -16 40 -12 46 5 4 8 13 15 21
15 14 0 43 23 43 34 0 7 -40 6 -59 -1z"/>
<path d="M1140 1983 c0 -5 11 -9 25 -9 14 -1 25 2 25 7 0 5 -11 9 -25 9 -14 0
-25 -3 -25 -7z"/>
<path d="M1540 1970 c0 -11 5 -20 10 -20 6 0 10 9 10 20 0 11 -4 20 -10 20 -5
0 -10 -9 -10 -20z"/>
<path d="M3383 1973 c-20 -7 -15 -23 7 -23 11 0 20 4 20 9 0 13 -12 19 -27 14z"/>
<path d="M1140 1936 c0 -9 7 -16 16 -16 17 0 14 22 -4 28 -7 2 -12 -3 -12 -12z"/>
<path d="M0 1920 c0 -5 5 -10 10 -10 6 0 10 5 10 10 0 6 -4 10 -10 10 -5 0
-10 -4 -10 -10z"/>
<path d="M807 1903 c-6 -32 9 -56 22 -35 9 15 2 62 -9 62 -4 0 -10 -12 -13
-27z"/>
<path d="M1564 1909 c-3 -6 -1 -16 5 -22 8 -8 11 -5 11 11 0 24 -5 28 -16 11z"/>
<path d="M686 1901 c-4 -6 -2 -11 3 -11 6 0 11 -9 11 -20 0 -22 15 -27 26 -9
3 6 -3 20 -14 31 -13 13 -22 16 -26 9z"/>
<path d="M610 1888 c0 -7 4 -19 9 -27 12 -19 43 -6 39 16 -4 21 -48 31 -48 11z"/>
<path d="M1160 1841 c0 -6 5 -13 10 -16 6 -3 10 1 10 9 0 9 -4 16 -10 16 -5 0
-10 -4 -10 -9z"/>
<path d="M1530 1830 c0 -5 5 -10 10 -10 6 0 10 5 10 10 0 6 -4 10 -10 10 -5 0
-10 -4 -10 -10z"/>
<path d="M525 1820 c-4 -6 -3 -16 3 -22 6 -6 12 -6 17 2 4 6 3 16 -3 22 -6 6
-12 6 -17 -2z"/>
<path d="M1690 1820 c0 -5 5 -10 10 -10 6 0 10 5 10 10 0 6 -4 10 -10 10 -5 0
-10 -4 -10 -10z"/>
<path d="M705 1810 c-3 -5 -3 -15 1 -21 6 -11 23 6 24 24 0 10 -18 9 -25 -3z"/>
<path d="M600 1786 c0 -8 7 -16 15 -20 17 -6 18 -4 9 18 -8 20 -24 21 -24 2z"/>
<path d="M1584 1755 c-3 -8 -3 -19 1 -25 11 -18 25 -11 25 15 0 27 -17 34 -26
10z"/>
<path d="M3522 1730 c2 -29 0 -40 -11 -42 -12 -3 -12 -5 1 -18 8 -9 19 -26 22
-38 6 -19 4 -22 -22 -22 -34 0 -41 -12 -34 -58 4 -33 28 -40 26 -8 -1 9 4 16
11 16 7 0 18 6 25 14 6 8 17 13 24 10 8 -3 12 12 12 51 1 46 -2 55 -16 55 -10
0 -18 6 -17 13 1 40 -4 67 -14 67 -7 0 -10 -15 -7 -40z"/>
<path d="M705 1740 c3 -5 10 -10 16 -10 5 0 9 5 9 10 0 6 -7 10 -16 10 -8 0
-12 -4 -9 -10z"/>
<path d="M3310 1731 c0 -6 5 -13 10 -16 6 -3 10 1 10 9 0 9 -4 16 -10 16 -5 0
-10 -4 -10 -9z"/>
<path d="M750 1724 c0 -3 5 -14 11 -25 8 -16 13 -18 25 -8 11 9 12 15 3 25
-11 14 -39 19 -39 8z"/>
<path d="M1196 1701 c-4 -5 -2 -12 3 -15 5 -4 12 -2 15 3 4 5 2 12 -3 15 -5 4
-12 2 -15 -3z"/>
<path d="M690 1670 c0 -5 7 -10 15 -10 8 0 15 5 15 10 0 6 -7 10 -15 10 -8 0
-15 -4 -15 -10z"/>
<path d="M740 1660 c0 -5 5 -10 10 -10 6 0 10 5 10 10 0 6 -4 10 -10 10 -5 0
-10 -4 -10 -10z"/>
<path d="M3126 1613 c8 -43 14 -55 14 -27 0 11 5 25 11 31 8 8 5 14 -11 23
-20 11 -21 10 -14 -27z"/>
<path d="M1612 1618 c3 -7 12 -14 21 -16 12 -2 15 1 11 12 -7 19 -38 22 -32 4z"/>
<path d="M3190 1601 c0 -10 -7 -22 -16 -25 -8 -3 -14 -14 -13 -23 1 -10 -3
-30 -9 -44 -20 -49 -18 -71 7 -88 24 -16 24 -15 17 9 -13 43 -12 55 5 54 14
-1 15 4 8 28 -7 25 -4 36 16 63 25 31 24 45 -2 45 -7 0 -13 -9 -13 -19z"/>
<path d="M765 1601 c-3 -5 -1 -12 5 -16 5 -3 10 1 10 9 0 18 -6 21 -15 7z"/>
<path d="M0 1529 c0 -29 4 -48 9 -44 6 3 15 -4 21 -16 9 -16 19 -20 40 -17 25
4 29 1 27 -16 -2 -16 5 -22 26 -24 28 -3 38 14 13 24 -8 3 -12 13 -9 25 4 14
1 20 -8 18 -8 -1 -33 2 -56 6 -33 6 -43 12 -43 27 0 15 3 17 19 8 26 -13 31
-13 31 3 0 16 -42 57 -58 57 -8 0 -12 -18 -12 -51z"/>
<path d="M780 1550 c0 -11 2 -20 4 -20 2 0 11 -3 20 -6 11 -4 16 0 16 14 0 11
-7 23 -16 26 -23 9 -24 8 -24 -14z"/>
<path d="M3555 1560 c3 -5 8 -10 11 -10 2 0 4 5 4 10 0 6 -5 10 -11 10 -5 0
-7 -4 -4 -10z"/>
<path d="M100 1524 c0 -9 5 -14 12 -12 18 6 21 28 4 28 -9 0 -16 -7 -16 -16z"/>
<path d="M902 1508 c6 -18 28 -21 28 -4 0 9 -7 16 -16 16 -9 0 -14 -5 -12 -12z"/>
<path d="M3495 1490 c-3 -5 1 -10 9 -10 9 0 16 5 16 10 0 6 -4 10 -9 10 -6 0
-13 -4 -16 -10z"/>
<path d="M3213 1465 c-9 -20 -8 -25 3 -25 8 0 14 10 14 25 0 31 -2 31 -17 0z"/>
<path d="M3630 1470 c-13 -8 -13 -11 2 -27 21 -21 31 -13 21 15 -6 16 -12 19
-23 12z"/>
<path d="M172 1442 c-6 -14 -10 -28 -7 -30 7 -8 35 19 35 34 0 24 -15 22 -28
-4z"/>
<path d="M3443 1458 c2 -7 10 -13 18 -13 8 0 21 -4 29 -9 8 -4 4 2 -9 13 -26
23 -45 27 -38 9z"/>
<path d="M240 1440 c0 -5 5 -10 10 -10 6 0 10 5 10 10 0 6 -4 10 -10 10 -5 0
-10 -4 -10 -10z"/>
<path d="M1600 1440 c0 -5 5 -10 10 -10 6 0 10 5 10 10 0 6 -4 10 -10 10 -5 0
-10 -4 -10 -10z"/>
<path d="M1 1349 l-1 -66 61 -53 c68 -59 200 -212 299 -346 36 -48 67 -92 68
-96 2 -5 12 -18 23 -31 19 -22 65 -80 106 -133 37 -48 68 -97 82 -130 7 -18
20 -40 29 -50 23 -26 112 -161 112 -171 0 -5 13 -24 28 -43 16 -19 55 -79 87
-132 59 -97 60 -98 98 -98 l39 0 -31 39 c-17 21 -31 46 -31 55 0 9 -9 21 -20
28 -11 7 -20 20 -20 28 0 9 -9 23 -20 33 -11 9 -20 26 -20 37 0 11 -7 20 -16
20 -11 0 -14 6 -9 20 5 15 2 20 -12 20 -15 0 -16 2 -3 10 14 9 7 14 -13 11 -4
-1 -10 13 -14 30 -4 20 -14 34 -29 40 -13 4 -24 14 -24 21 0 7 -16 35 -35 62
-19 27 -35 58 -35 68 0 10 -4 18 -10 18 -5 0 -17 17 -27 38 -9 20 -28 45 -40
55 -13 10 -23 29 -23 42 0 17 -25 50 -85 109 -47 47 -85 91 -85 99 0 8 -7 20
-15 27 -9 7 -13 21 -10 31 4 13 1 19 -8 19 -16 0 -97 91 -97 108 0 5 -12 18
-27 28 -39 25 -53 40 -53 57 0 17 -75 97 -90 97 -6 0 -10 15 -10 34 0 37 -21
53 -55 39 -15 -5 -17 -3 -12 11 8 19 -12 56 -30 56 -6 0 -14 6 -16 13 -3 6 -6
-18 -6 -54z"/>
<path d="M342 1401 c-11 -7 -10 -10 3 -15 23 -9 25 -8 25 9 0 17 -9 19 -28 6z"/>
<path d="M1666 1401 c-4 -5 -2 -12 3 -15 5 -4 12 -2 15 3 4 5 2 12 -3 15 -5 4
-12 2 -15 -3z"/>
<path d="M3166 1395 c-19 -19 -21 -46 -4 -63 9 -9 9 -18 -1 -39 -7 -14 -14
-53 -17 -85 -3 -47 -1 -58 11 -58 14 0 20 17 16 48 -1 6 2 12 7 12 5 0 9 14
10 31 0 17 6 37 12 45 7 8 9 25 6 40 -5 18 -3 30 6 35 10 6 10 13 2 26 -15 24
-29 26 -48 8z"/>
<path d="M3430 1390 c0 -16 26 -27 45 -19 11 4 16 8 10 9 -5 1 1 5 15 10 20 6
15 7 -22 8 -27 0 -48 -3 -48 -8z"/>
<path d="M153 1383 c-32 -12 -5 -41 55 -58 17 -5 21 -11 16 -30 -5 -20 -1 -27
19 -36 30 -14 57 -6 57 16 0 9 -9 15 -23 15 -33 0 -39 9 -22 34 22 31 19 47
-8 41 -15 -4 -28 -1 -36 9 -13 16 -34 19 -58 9z"/>
<path d="M3640 1382 c0 -5 9 -17 19 -26 18 -16 19 -16 17 1 -2 25 -36 48 -36
25z"/>
<path d="M880 1370 c0 -5 5 -10 10 -10 6 0 10 5 10 10 0 6 -4 10 -10 10 -5 0
-10 -4 -10 -10z"/>
<path d="M1645 1330 c3 -5 8 -10 11 -10 2 0 4 5 4 10 0 6 -5 10 -11 10 -5 0
-7 -4 -4 -10z"/>
<path d="M380 1320 c0 -5 5 -10 10 -10 6 0 10 5 10 10 0 6 -4 10 -10 10 -5 0
-10 -4 -10 -10z"/>
<path d="M3427 1311 c-3 -12 1 -22 11 -26 20 -7 36 9 29 29 -9 22 -34 20 -40
-3z"/>
<path d="M3652 1320 c3 -8 13 -17 24 -19 10 -2 22 -8 26 -14 4 -6 11 -8 15 -3
4 5 2 11 -4 13 -7 3 -13 12 -13 20 0 12 -3 13 -13 4 -10 -8 -17 -7 -26 2 -11
10 -13 9 -9 -3z"/>
<path d="M455 1301 c-3 -5 -1 -12 5 -16 5 -3 10 1 10 9 0 18 -6 21 -15 7z"/>
<path d="M3629 1258 c-1 -7 -3 -28 -5 -45 -4 -37 10 -44 26 -14 15 30 13 71
-5 71 -8 0 -16 -6 -16 -12z"/>
<path d="M3689 1263 c0 -5 -3 -21 -5 -38 -5 -28 -4 -28 13 -13 23 21 27 58 7
58 -8 0 -14 -3 -15 -7z"/>
<path d="M1640 1235 c0 -8 5 -15 10 -15 6 0 10 7 10 15 0 8 -4 15 -10 15 -5 0
-10 -7 -10 -15z"/>
<path d="M3409 1241 c-3 -22 -5 -26 -23 -54 -10 -15 -15 -31 -12 -35 11 -10
68 57 64 75 -4 19 -27 30 -29 14z"/>
<path d="M318 1228 c9 -9 15 -9 24 0 9 9 7 12 -12 12 -19 0 -21 -3 -12 -12z"/>
<path d="M2390 1210 c0 -5 7 -10 15 -10 8 0 15 5 15 10 0 6 -7 10 -15 10 -8 0
-15 -4 -15 -10z"/>
<path d="M362 1197 c-8 -9 -21 -13 -34 -10 -19 5 -19 4 -7 -18 7 -13 11 -26
10 -29 -1 -3 8 -7 21 -10 13 -3 25 -16 28 -30 l6 -23 17 26 c17 27 14 58 -7
56 -6 -1 -20 -1 -30 0 -19 1 -19 2 -2 14 11 8 17 19 15 26 -4 10 -8 10 -17 -2z"/>
<path d="M580 1197 c0 -23 11 -47 21 -47 15 0 10 37 -6 50 -12 10 -15 10 -15
-3z"/>
<path d="M640 1164 c0 -9 5 -14 12 -12 18 6 21 28 4 28 -9 0 -16 -7 -16 -16z"/>
<path d="M2365 1161 c-3 -6 1 -11 9 -11 22 0 22 -58 1 -67 -14 -5 -14 -7 1
-24 11 -12 14 -27 9 -48 -5 -24 -3 -31 8 -31 8 0 18 10 21 23 12 45 23 53 45
33 18 -16 21 -17 21 -3 0 8 -11 24 -24 34 -17 14 -22 24 -15 35 12 21 2 45
-19 51 -9 3 -24 8 -33 12 -10 3 -20 2 -24 -4z"/>
<path d="M2520 1156 c0 -9 5 -16 10 -16 6 0 10 4 10 9 0 6 -4 13 -10 16 -5 3
-10 -1 -10 -9z"/>
<path d="M2565 1160 c-3 -5 1 -10 10 -10 9 0 13 5 10 10 -3 6 -8 10 -10 10 -2
0 -7 -4 -10 -10z"/>
<path d="M3874 1156 c-4 -11 -2 -21 7 -27 18 -11 24 5 10 28 -9 17 -10 17 -17
-1z"/>
<path d="M503 1145 c-26 -14 -20 -25 14 -25 13 0 23 6 23 14 0 21 -12 24 -37
11z"/>
<path d="M2891 1146 c-13 -16 4 -100 26 -127 7 -8 13 -22 13 -29 0 -8 5 -30
11 -49 7 -20 13 -42 15 -49 4 -15 31 -4 58 24 21 20 22 58 2 51 -10 -4 -16 2
-18 16 -2 12 -9 22 -15 22 -15 0 -15 1 -7 32 5 17 11 22 28 17 14 -3 28 2 41
15 22 26 12 40 -16 23 -31 -20 -77 -6 -94 28 -19 37 -30 43 -44 26z"/>
<path d="M3684 1102 c2 -52 7 -67 29 -90 15 -16 27 -35 27 -43 1 -11 4 -10 14
4 7 9 17 17 22 17 5 0 10 12 10 26 2 22 -1 25 -21 20 -13 -3 -27 0 -33 7 -13
17 -21 67 -11 67 5 0 9 7 9 16 0 8 -5 12 -11 9 -6 -4 -17 1 -24 11 -12 17 -14
11 -11 -44z"/>
<path d="M250 1140 c0 -5 5 -10 10 -10 6 0 10 5 10 10 0 6 -4 10 -10 10 -5 0
-10 -4 -10 -10z"/>
<path d="M3020 1136 c0 -9 7 -12 20 -9 11 3 20 9 20 14 0 5 -9 9 -20 9 -11 0
-20 -6 -20 -14z"/>
<path d="M7 1133 c-4 -3 -7 -15 -7 -25 0 -22 26 -24 34 -2 10 25 -10 45 -27
27z"/>
<path d="M1653 1115 c-8 -22 6 -33 17 -15 13 20 12 30 0 30 -6 0 -13 -7 -17
-15z"/>
<path d="M2594 1115 c-4 -8 -1 -22 6 -30 11 -13 15 -12 31 6 10 12 16 26 13
30 -9 15 -44 10 -50 -6z"/>
<path d="M730 1110 c0 -5 5 -10 10 -10 6 0 10 5 10 10 0 6 -4 10 -10 10 -5 0
-10 -4 -10 -10z"/>
<path d="M2537 1098 c-4 -12 -3 -41 0 -66 7 -51 38 -78 78 -68 34 9 40 29 20
60 -19 28 -45 35 -45 11 0 -9 -6 -12 -15 -9 -11 5 -14 15 -9 38 4 22 1 36 -9
44 -12 10 -16 8 -20 -10z"/>
<path d="M3356 1088 c-22 -31 -20 -38 8 -38 28 0 36 -15 29 -54 -5 -23 -3 -27
13 -24 15 3 18 11 16 43 -2 21 -8 48 -15 59 -6 12 -10 24 -9 29 5 17 -28 5
-42 -15z"/>
<path d="M2670 1081 c0 -18 62 -71 83 -71 10 0 21 -9 24 -20 3 -11 9 -20 14
-20 5 0 7 -11 3 -24 -5 -20 -1 -24 26 -29 17 -4 41 -18 54 -32 23 -25 46 -33
46 -16 0 31 -78 131 -103 131 -10 0 -22 11 -27 25 -5 14 -15 25 -21 25 -7 0
-20 6 -28 14 -22 20 -71 31 -71 17z"/>
<path d="M445 1060 c-7 -21 9 -50 27 -50 5 0 16 -7 24 -15 18 -17 62 -30 71
-21 9 9 -38 57 -53 54 -7 -2 -12 -1 -12 2 1 3 -4 15 -11 28 -15 28 -38 29 -46
2z"/>
<path d="M624 1066 c-10 -8 -16 -18 -12 -22 10 -9 58 12 58 26 0 14 -23 12
-46 -4z"/>
<path d="M1672 1055 c8 -17 15 -22 21 -16 7 7 6 15 -3 26 -20 24 -31 18 -18
-10z"/>
<path d="M550 1056 c0 -7 7 -19 15 -26 22 -19 44 3 25 25 -16 19 -40 20 -40 1z"/>
<path d="M750 1060 c0 -5 5 -10 10 -10 6 0 10 5 10 10 0 6 -4 10 -10 10 -5 0
-10 -4 -10 -10z"/>
<path d="M3557 1029 c-17 -31 -17 -31 3 -26 11 3 23 1 26 -4 3 -5 11 -9 17 -9
7 1 5 6 -5 13 -9 7 -18 23 -20 35 -3 20 -4 20 -21 -9z"/>
<path d="M62 1037 c-8 -9 -11 -21 -8 -26 4 -6 1 -19 -6 -30 -14 -23 -12 -26
20 -35 25 -8 26 -1 14 68 -6 34 -9 37 -20 23z"/>
<path d="M2001 1019 c-16 -47 -14 -59 13 -59 29 0 40 -24 20 -41 -15 -12 -15
-24 1 -61 5 -13 2 -15 -16 -11 l-22 6 19 -25 c10 -14 22 -24 26 -22 8 5 3 -75
-6 -83 -9 -9 -7 -51 2 -55 4 -2 18 -23 30 -47 15 -32 18 -48 11 -57 -14 -17
-2 -54 16 -54 22 0 38 37 20 44 -19 7 -19 26 -1 26 21 0 9 71 -15 89 -22 16
-24 39 -4 65 8 10 11 24 7 30 -3 6 -8 40 -9 75 -2 39 -10 75 -20 90 -11 17
-13 26 -5 29 19 6 14 30 -8 42 -11 6 -20 20 -20 30 0 31 -27 23 -39 -11z"/>
<path d="M2220 1041 c0 -18 18 -21 30 -6 10 13 9 15 -9 15 -11 0 -21 -4 -21
-9z"/>
<path d="M2309 1009 c-8 -15 -8 -24 0 -32 15 -15 46 16 38 37 -9 22 -24 20
-38 -5z"/>
<path d="M3460 1015 c-7 -9 -10 -18 -7 -21 10 -11 37 5 37 21 0 19 -14 19 -30
0z"/>
<path d="M100 1011 c0 -6 5 -13 10 -16 6 -3 10 1 10 9 0 9 -4 16 -10 16 -5 0
-10 -4 -10 -9z"/>
<path d="M727 1005 c-7 -16 8 -29 23 -20 15 9 12 35 -4 35 -8 0 -16 -7 -19
-15z"/>
<path d="M880 1012 c0 -11 37 -32 44 -25 15 15 4 33 -19 33 -14 0 -25 -3 -25
-8z"/>
<path d="M1755 1001 c-3 -5 -1 -12 5 -16 5 -3 10 1 10 9 0 18 -6 21 -15 7z"/>
<path d="M2426 982 c-7 -11 -1 -60 7 -69 4 -3 7 -17 7 -30 0 -14 6 -23 15 -23
23 0 30 28 17 64 -8 20 -9 32 -2 34 5 2 10 10 10 18 0 15 -45 20 -54 6z"/>
<path d="M2690 968 c0 -10 4 -17 8 -14 5 3 15 -6 22 -19 16 -29 25 -31 34 -9
7 19 -16 50 -45 57 -14 4 -19 0 -19 -15z"/>
<path d="M560 941 c-9 -19 -8 -25 12 -41 13 -11 29 -19 36 -20 20 0 13 35 -12
59 l-24 23 -12 -21z"/>
<path d="M3777 953 c-13 -12 -7 -43 8 -43 8 0 15 -5 15 -12 0 -6 7 -19 16 -29
13 -14 13 -21 4 -40 -11 -19 -10 -24 4 -35 11 -8 18 -30 21 -65 3 -43 8 -56
30 -72 l26 -19 -5 23 c-20 91 -26 138 -20 153 4 9 0 24 -9 34 -8 9 -18 27 -21
40 -4 12 -12 22 -17 22 -5 0 -14 11 -19 25 -9 25 -21 31 -33 18z"/>
<path d="M676 941 c-4 -6 -3 -19 3 -28 9 -17 10 -17 17 0 8 21 -10 45 -20 28z"/>
<path d="M2268 943 c6 -2 18 -2 25 0 6 3 1 5 -13 5 -14 0 -19 -2 -12 -5z"/>
<path d="M102 917 l-22 -24 20 -18 c11 -10 20 -23 20 -30 0 -18 28 -71 46 -85
11 -10 13 -24 8 -57 -5 -35 -3 -43 9 -43 9 0 25 12 36 26 19 24 26 24 22 1 -1
-4 9 -5 22 -2 15 4 28 1 36 -9 14 -16 42 -21 54 -9 11 10 -14 33 -35 33 -12 0
-22 9 -25 21 -5 17 -11 20 -44 15 -29 -4 -39 -2 -39 8 0 8 7 16 15 20 33 12 2
86 -36 86 -18 0 -41 22 -38 36 2 14 -13 54 -20 54 -4 0 -17 -10 -29 -23z"/>
<path d="M877 934 c-8 -8 1 -24 13 -24 4 0 10 7 14 15 5 15 -14 21 -27 9z"/>
<path d="M2586 932 c-3 -5 -3 -25 1 -45 5 -32 9 -37 32 -37 19 0 27 5 27 18 1
9 5 25 9 36 7 15 5 17 -13 11 -16 -5 -22 -2 -22 9 0 17 -25 22 -34 8z"/>
<path d="M3434 923 c-11 -17 -3 -58 18 -93 4 -8 15 -30 23 -47 9 -20 25 -35
40 -39 30 -7 28 -25 -3 -39 -28 -12 -27 -14 3 -47 14 -15 25 -34 25 -43 0 -8
5 -15 11 -15 6 0 8 -8 4 -19 -7 -23 23 -90 51 -113 12 -10 24 -35 28 -59 4
-22 15 -58 26 -80 11 -21 20 -46 20 -57 0 -10 4 -22 9 -28 5 -5 11 -27 13 -49
2 -32 7 -41 24 -43 18 -3 21 -9 18 -42 -2 -25 2 -42 11 -50 8 -7 15 -23 15
-36 0 -19 5 -24 26 -24 22 0 24 3 18 23 -3 12 -11 28 -16 34 -7 9 -7 18 1 27
10 12 8 19 -8 35 -11 11 -18 27 -15 36 4 9 -1 17 -10 20 -9 3 -24 7 -33 10
-12 4 -14 8 -5 17 13 13 16 48 5 48 -7 0 -34 79 -49 143 -3 15 -10 27 -15 27
-15 0 -10 27 6 34 22 8 18 28 -4 21 -21 -6 -38 10 -21 20 13 8 13 52 -1 60 -6
4 -8 14 -5 22 4 11 2 13 -9 9 -8 -3 -28 -1 -43 5 -15 7 -22 13 -14 16 14 6 16
49 2 58 -5 3 -10 19 -10 34 0 16 -10 39 -23 52 -42 43 -70 100 -71 143 -1 45
-23 60 -42 29z m189 -369 c7 -7 -14 -44 -25 -44 -5 0 -8 11 -8 25 0 23 18 34
33 19z"/>
<path d="M3550 936 c0 -2 7 -9 15 -16 12 -10 15 -10 15 4 0 9 -7 16 -15 16 -8
0 -15 -2 -15 -4z"/>
<path d="M3610 924 c-9 -10 -10 -18 -2 -26 12 -12 32 -2 32 17 0 21 -16 26
-30 9z"/>
<path d="M3282 893 c-14 -56 -11 -74 13 -83 17 -7 24 -20 30 -57 4 -26 14 -56
22 -65 9 -10 13 -24 10 -32 -8 -19 2 -24 31 -17 l24 6 -22 28 c-12 15 -18 27
-14 27 4 0 -1 9 -12 21 -10 12 -18 30 -16 41 2 11 -4 28 -13 38 -10 11 -15 26
-12 35 4 8 3 15 -2 15 -5 0 -8 16 -7 36 1 50 -20 55 -32 7z"/>
<path d="M185 900 c-3 -5 1 -10 9 -10 9 0 16 5 16 10 0 6 -4 10 -9 10 -6 0
-13 -4 -16 -10z"/>
<path d="M705 890 c4 -6 11 -8 16 -5 14 9 11 15 -7 15 -8 0 -12 -5 -9 -10z"/>
<path d="M1915 880 c3 -5 8 -10 11 -10 2 0 4 5 4 10 0 6 -5 10 -11 10 -5 0 -7
-4 -4 -10z"/>
<path d="M1940 879 c0 -5 5 -7 10 -4 6 3 10 8 10 11 0 2 -4 4 -10 4 -5 0 -10
-5 -10 -11z"/>
<path d="M2994 858 c6 -37 -7 -71 -17 -44 -11 29 -27 17 -27 -20 0 -49 17 -79
36 -63 10 8 11 15 4 24 -15 18 6 30 25 15 12 -10 14 -3 13 47 -1 53 -9 72 -32
73 -4 0 -6 -15 -2 -32z"/>
<path d="M3740 875 c0 -8 7 -15 15 -15 8 0 15 7 15 15 0 8 -7 15 -15 15 -8 0
-15 -7 -15 -15z"/>
<path d="M455 870 c3 -5 8 -10 11 -10 2 0 4 5 4 10 0 6 -5 10 -11 10 -5 0 -7
-4 -4 -10z"/>
<path d="M2367 874 c-13 -13 -7 -24 14 -24 11 0 19 5 17 12 -5 14 -22 21 -31
12z"/>
<path d="M702 858 c-16 -16 -15 -38 2 -38 7 0 19 6 25 14 16 19 -10 41 -27 24z"/>
<path d="M1705 860 c-3 -5 -1 -10 4 -10 6 0 11 5 11 10 0 6 -2 10 -4 10 -3 0
-8 -4 -11 -10z"/>
<path d="M3505 859 c-10 -15 3 -25 16 -12 7 7 7 13 1 17 -6 3 -14 1 -17 -5z"/>
<path d="M905 844 c-22 -17 -19 -21 21 -28 18 -3 38 0 48 7 16 12 15 14 -16
24 -27 8 -39 7 -53 -3z"/>
<path d="M1 816 c-1 -33 1 -37 14 -26 9 8 12 17 6 24 -4 6 -11 18 -14 26 -3 8
-6 -2 -6 -24z"/>
<path d="M790 825 c0 -14 4 -25 10 -25 5 0 9 11 8 25 -1 14 -6 25 -10 25 -4 0
-8 -11 -8 -25z"/>
<path d="M630 825 c0 -8 7 -15 15 -15 8 0 15 7 15 15 0 8 -7 15 -15 15 -8 0
-15 -7 -15 -15z"/>
<path d="M1764 826 c-8 -22 3 -33 18 -18 9 9 9 15 0 24 -9 9 -13 7 -18 -6z"/>
<path d="M2441 765 c1 -36 7 -73 15 -82 11 -15 13 -6 13 65 0 65 -3 82 -15 82
-11 0 -14 -14 -13 -65z"/>
<path d="M2675 821 c-3 -5 -1 -12 5 -16 12 -7 30 2 30 16 0 12 -27 12 -35 0z"/>
<path d="M725 810 c-4 -6 -3 -16 3 -22 6 -6 12 -6 17 2 4 6 3 16 -3 22 -6 6
-12 6 -17 -2z"/>
<path d="M1816 812 c-6 -10 -3 -33 8 -50 5 -9 1 -15 -13 -19 -24 -6 -25 -11
-11 -33 9 -13 14 -11 34 13 15 18 21 37 18 52 -5 27 -27 51 -36 37z"/>
<path d="M2765 810 c-3 -5 -1 -10 4 -10 6 0 11 5 11 10 0 6 -2 10 -4 10 -3 0
-8 -4 -11 -10z"/>
<path d="M2840 804 c0 -9 5 -14 12 -12 18 6 21 28 4 28 -9 0 -16 -7 -16 -16z"/>
<path d="M3645 810 c-3 -5 1 -10 10 -10 9 0 13 5 10 10 -3 6 -8 10 -10 10 -2
0 -7 -4 -10 -10z"/>
<path d="M1872 798 c-20 -20 -14 -38 12 -38 30 0 42 16 26 35 -15 18 -22 19
-38 3z"/>
<path d="M2330 798 c0 -26 12 -58 22 -58 14 0 5 63 -9 68 -7 2 -13 -2 -13 -10z"/>
<path d="M271 774 c0 -11 3 -14 6 -6 3 7 2 16 -1 19 -3 4 -6 -2 -5 -13z"/>
<path d="M1633 783 c-22 -8 -14 -23 12 -23 16 0 25 6 25 15 0 15 -14 18 -37 8z"/>
<path d="M2590 776 c0 -9 7 -16 16 -16 17 0 14 22 -4 28 -7 2 -12 -3 -12 -12z"/>
<path d="M1950 764 c0 -9 7 -14 17 -12 25 5 28 28 4 28 -12 0 -21 -6 -21 -16z"/>
<path d="M2390 770 c0 -5 5 -10 10 -10 6 0 10 5 10 10 0 6 -4 10 -10 10 -5 0
-10 -4 -10 -10z"/>
<path d="M710 763 c1 -18 28 -44 35 -33 4 6 1 17 -5 25 -13 16 -30 20 -30 8z"/>
<path d="M1700 740 c0 -5 5 -10 10 -10 6 0 10 5 10 10 0 6 -4 10 -10 10 -5 0
-10 -4 -10 -10z"/>
<path d="M2500 731 c0 -12 6 -21 16 -21 9 0 14 7 12 17 -5 25 -28 28 -28 4z"/>
<path d="M3667 744 c-8 -8 1 -24 14 -24 5 0 9 7 9 15 0 15 -12 20 -23 9z"/>
<path d="M755 729 c-11 -17 30 -50 44 -36 20 20 13 47 -13 47 -14 0 -28 -5
-31 -11z"/>
<path d="M1653 733 c-7 -2 -13 -11 -13 -19 0 -8 6 -14 13 -14 21 0 40 17 33
29 -8 12 -13 12 -33 4z"/>
<path d="M2880 725 c0 -8 9 -15 20 -15 11 0 20 7 20 15 0 8 -9 15 -20 15 -11
0 -20 -7 -20 -15z"/>
<path d="M30 714 c0 -10 -6 -14 -15 -10 -13 5 -15 -11 -15 -103 l0 -108 45
-42 c24 -22 54 -41 65 -41 17 0 19 -3 8 -19 -7 -11 -20 -22 -30 -24 -32 -9
-31 -35 2 -83 27 -41 30 -51 20 -72 -7 -16 -7 -29 -1 -35 25 -25 61 45 36 73
-15 17 -22 131 -7 129 20 -3 23 2 11 18 -11 13 -11 17 -2 20 17 6 16 38 -1 53
-8 6 -16 21 -18 33 -4 32 -44 35 -51 5 -6 -23 -6 -23 -26 -3 -22 23 -39 105
-22 105 7 0 11 22 10 60 -1 33 -3 60 -5 60 -2 0 -4 -7 -4 -16z m76 -249 c9 -8
11 -15 6 -15 -5 0 -15 7 -22 15 -7 8 -9 15 -6 15 4 0 14 -7 22 -15z"/>
<path d="M1380 710 c0 -22 7 -25 29 -11 11 7 9 11 -8 20 -18 10 -21 9 -21 -9z"/>
<path d="M1870 716 c-6 -6 -10 -15 -10 -21 0 -17 34 -45 55 -45 14 0 16 6 11
31 -3 17 -6 35 -6 40 0 11 -38 7 -50 -5z"/>
<path d="M2670 715 c-10 -13 -9 -15 9 -15 11 0 21 4 21 9 0 18 -18 21 -30 6z"/>
<path d="M2730 721 c0 -13 33 -31 56 -31 16 0 16 2 4 14 -20 19 -60 30 -60 17z"/>
<path d="M2620 705 c-10 -13 -9 -15 9 -15 11 0 21 4 21 9 0 18 -18 21 -30 6z"/>
<path d="M690 686 c0 -14 5 -26 10 -26 6 0 10 9 10 19 0 11 -4 23 -10 26 -6 4
-10 -5 -10 -19z"/>
<path d="M816 681 c-12 -19 46 -98 72 -97 6 1 12 4 12 9 0 4 0 13 0 20 0 7
-10 17 -22 22 -13 6 -24 20 -26 33 -3 22 -26 30 -36 13z"/>
<path d="M1386 681 c-21 -8 -33 -56 -16 -66 14 -9 12 -25 -3 -25 -14 0 -16
-26 -5 -45 6 -11 4 -43 -5 -65 -9 -22 -3 -50 13 -60 10 -6 11 -12 3 -22 -15
-17 20 -63 42 -54 8 3 15 1 15 -4 0 -6 9 -10 19 -10 17 0 18 3 8 25 -7 15 -20
25 -33 25 -28 0 -35 9 -23 31 6 13 6 25 -1 39 -9 17 -8 20 10 20 11 0 20 -4
20 -10 0 -5 9 -10 20 -10 15 0 20 7 20 26 0 30 -16 64 -31 64 -6 0 -8 -3 -5
-8 2 -4 -2 -16 -10 -27 -10 -14 -17 -16 -25 -8 -7 7 -8 17 -3 25 5 7 10 33 10
58 2 68 3 70 20 63 12 -4 15 0 12 18 -3 26 -21 32 -52 20z"/>
<path d="M2390 685 c0 -4 7 -19 14 -34 17 -33 11 -72 -10 -64 -8 3 -14 16 -14
29 0 13 -5 24 -11 24 -6 0 -9 -6 -6 -14 3 -8 2 -29 -3 -46 -10 -36 9 -52 36
-29 24 20 36 -8 17 -38 -13 -20 -13 -26 -2 -40 12 -15 12 -16 -3 -10 -22 8
-24 -11 -4 -38 19 -27 50 -13 43 20 -2 14 0 28 5 31 5 3 6 13 3 23 -13 31 -11
121 2 121 7 0 13 5 13 10 0 6 -9 10 -20 10 -13 0 -22 9 -26 25 -3 14 -12 25
-20 25 -8 0 -14 -2 -14 -5z"/>
<path d="M2930 680 c0 -5 9 -10 20 -10 11 0 20 5 20 10 0 6 -9 10 -20 10 -11
0 -20 -4 -20 -10z"/>
<path d="M3960 674 c0 -8 5 -12 10 -9 6 4 8 11 5 16 -9 14 -15 11 -15 -7z"/>
<path d="M630 665 c0 -8 5 -15 10 -15 6 0 10 7 10 15 0 8 -4 15 -10 15 -5 0
-10 -7 -10 -15z"/>
<path d="M1785 671 c-8 -14 16 -61 32 -61 16 0 17 42 1 58 -14 14 -25 15 -33
3z"/>
<path d="M2720 665 c0 -8 9 -15 20 -15 13 0 18 5 14 15 -4 8 -12 15 -20 15 -8
0 -14 -7 -14 -15z"/>
<path d="M2830 670 c0 -5 7 -10 15 -10 8 0 15 5 15 10 0 6 -7 10 -15 10 -8 0
-15 -4 -15 -10z"/>
<path d="M2515 660 c-3 -5 -2 -10 4 -10 5 0 18 -3 28 -7 16 -6 16 -5 4 10 -15
19 -27 22 -36 7z"/>
<path d="M2617 664 c-8 -8 1 -24 14 -24 5 0 9 7 9 15 0 15 -12 20 -23 9z"/>
<path d="M3700 645 c0 -8 5 -15 10 -15 6 0 10 7 10 15 0 8 -4 15 -10 15 -5 0
-10 -7 -10 -15z"/>
<path d="M204 639 c-4 -8 1 -18 14 -27 12 -8 22 -24 22 -35 0 -34 18 -6 22 33
3 31 0 35 -24 38 -14 2 -30 -2 -34 -9z"/>
<path d="M1695 640 c-10 -16 3 -27 40 -34 19 -4 35 -11 35 -16 0 -6 7 -10 15
-10 18 0 18 2 3 35 -9 20 -17 25 -34 21 -13 -4 -26 -2 -29 4 -8 13 -22 13 -30
0z"/>
<path d="M294 625 c3 -9 1 -24 -5 -33 -9 -15 -6 -24 19 -49 17 -17 33 -28 36
-26 3 3 8 -11 12 -31 3 -21 4 -39 1 -42 -11 -11 -27 7 -27 30 0 15 -9 27 -25
34 -22 10 -25 9 -25 -9 0 -29 39 -81 56 -75 8 3 11 0 8 -8 -3 -7 4 -21 16 -31
12 -11 20 -31 20 -52 0 -23 5 -33 15 -33 9 0 15 9 15 24 0 13 9 35 20 49 23
29 25 49 8 80 -16 30 -61 77 -73 77 -7 0 -9 15 -7 35 3 25 -1 42 -13 55 -22
24 -60 27 -51 5z"/>
<path d="M1083 623 c9 -9 19 -14 23 -11 10 10 -6 28 -24 28 -15 0 -15 -1 1
-17z"/>
<path d="M1919 638 c-14 -44 6 -118 33 -118 11 0 18 7 18 20 0 11 -4 20 -8 20
-14 0 -33 48 -22 55 15 9 12 25 -5 25 -8 0 -15 -1 -16 -2z"/>
<path d="M1980 599 c0 -38 24 -35 28 4 2 19 -1 27 -12 27 -11 0 -16 -10 -16
-31z"/>
<path d="M2542 609 c1 -13 8 -23 13 -21 15 3 12 35 -3 40 -9 3 -13 -3 -10 -19z"/>
<path d="M3620 614 c0 -8 5 -12 10 -9 6 3 10 10 10 16 0 5 -4 9 -10 9 -5 0
-10 -7 -10 -16z"/>
<path d="M3906 622 c-6 -10 22 -47 30 -40 3 4 3 16 -1 27 -6 21 -20 27 -29 13z"/>
<path d="M1005 610 c-3 -5 -1 -10 4 -10 6 0 11 5 11 10 0 6 -2 10 -4 10 -3 0
-8 -4 -11 -10z"/>
<path d="M2955 610 c-3 -5 -1 -10 4 -10 6 0 11 5 11 10 0 6 -2 10 -4 10 -3 0
-8 -4 -11 -10z"/>
<path d="M740 600 c0 -5 5 -10 11 -10 5 0 7 5 4 10 -3 6 -8 10 -11 10 -2 0 -4
-4 -4 -10z"/>
<path d="M1854 595 c-4 -11 -19 -30 -32 -42 -14 -13 -20 -23 -14 -23 6 0 14
-17 17 -37 11 -67 50 -147 85 -177 32 -26 42 -50 27 -65 -7 -7 -1 -14 24 -25
18 -8 37 -12 41 -10 16 10 7 34 -11 34 -14 0 -18 5 -14 20 3 12 -1 22 -11 26
-9 3 -16 12 -16 20 0 8 -4 14 -9 14 -5 0 -12 13 -16 29 -3 16 -17 43 -31 62
-14 19 -22 40 -19 50 4 12 -1 22 -15 29 -24 13 -18 27 16 40 26 10 34 50 10
50 -8 0 -16 6 -19 13 -3 8 -8 5 -13 -8z"/>
<path d="M3697 604 c-8 -8 1 -24 14 -24 5 0 9 7 9 15 0 15 -12 20 -23 9z"/>
<path d="M385 581 c-9 -16 3 -31 26 -31 14 0 19 6 17 17 -4 20 -33 29 -43 14z"/>
<path d="M916 574 c-9 -23 -8 -24 14 -24 13 0 20 7 20 20 0 24 -25 27 -34 4z"/>
<path d="M2485 580 c-8 -14 3 -30 21 -30 16 0 16 2 8 24 -7 18 -20 21 -29 6z"/>
<path d="M1630 570 c0 -5 5 -10 10 -10 6 0 10 5 10 10 0 6 -4 10 -10 10 -5 0
-10 -4 -10 -10z"/>
<path d="M2710 570 c-8 -5 -12 -12 -9 -15 8 -8 39 5 39 16 0 11 -11 11 -30 -1z"/>
<path d="M3210 529 c0 -63 20 -179 31 -179 14 0 2 102 -12 111 -9 6 -10 12 -4
17 14 10 17 31 10 69 -9 51 -25 39 -25 -18z"/>
<path d="M2800 550 c0 -11 5 -20 10 -20 6 0 10 9 10 20 0 11 -4 20 -10 20 -5
0 -10 -9 -10 -20z"/>
<path d="M2900 556 c0 -7 9 -16 20 -19 13 -3 20 0 20 10 0 8 -4 11 -10 8 -5
-3 -10 -1 -10 4 0 6 -4 11 -10 11 -5 0 -10 -6 -10 -14z"/>
<path d="M2530 535 c-14 -8 -23 -15 -20 -15 33 -8 46 -7 52 3 19 29 6 34 -32
12z"/>
<path d="M3940 486 c0 -31 2 -56 4 -56 2 0 11 3 20 6 17 7 22 34 6 34 -5 0
-10 13 -10 29 0 17 -4 33 -10 36 -6 4 -10 -15 -10 -49z"/>
<path d="M755 501 c-3 -5 -1 -12 5 -16 5 -3 10 1 10 9 0 18 -6 21 -15 7z"/>
<path d="M916 501 c-4 -5 -2 -12 3 -15 5 -4 12 -2 15 3 4 5 2 12 -3 15 -5 4
-12 2 -15 -3z"/>
<path d="M2890 504 c0 -12 59 -48 67 -41 9 10 -8 27 -26 27 -9 0 -22 5 -29 12
-7 7 -12 8 -12 2z"/>
<path d="M2090 487 c0 -9 -4 -17 -10 -19 -6 -2 -6 -16 1 -40 7 -27 16 -38 29
-38 27 0 34 18 15 40 -9 10 -15 28 -13 41 2 12 -3 24 -9 26 -7 3 -13 -2 -13
-10z"/>
<path d="M2740 489 c0 -5 5 -7 10 -4 6 3 10 8 10 11 0 2 -4 4 -10 4 -5 0 -10
-5 -10 -11z"/>
<path d="M2980 484 c0 -8 5 -12 10 -9 6 4 8 11 5 16 -9 14 -15 11 -15 -7z"/>
<path d="M480 480 c0 -5 7 -10 15 -10 8 0 15 5 15 10 0 6 -7 10 -15 10 -8 0
-15 -4 -15 -10z"/>
<path d="M1918 478 c7 -7 18 -13 25 -13 7 -1 11 -6 10 -13 -2 -7 4 -12 12 -12
8 0 15 5 15 10 0 6 9 10 21 10 12 0 19 5 17 12 -3 7 -28 14 -59 16 -44 2 -52
1 -41 -10z"/>
<path d="M2365 480 c3 -5 8 -10 11 -10 2 0 4 5 4 10 0 6 -5 10 -11 10 -5 0 -7
-4 -4 -10z"/>
<path d="M2550 480 c-8 -5 -11 -13 -6 -17 5 -4 11 -2 13 5 3 6 9 10 14 6 5 -3
9 0 9 5 0 13 -10 14 -30 1z"/>
<path d="M1315 460 c-3 -5 -1 -10 4 -10 6 0 11 5 11 10 0 6 -2 10 -4 10 -3 0
-8 -4 -11 -10z"/>
<path d="M1647 464 c-11 -11 5 -34 24 -34 17 0 18 3 7 20 -13 21 -21 24 -31
14z"/>
<path d="M3780 460 c0 -5 7 -10 16 -10 8 0 12 5 9 10 -3 6 -10 10 -16 10 -5 0
-9 -4 -9 -10z"/>
<path d="M3015 447 c-4 -10 -3 -23 3 -29 14 -14 21 3 12 27 -7 19 -8 19 -15 2z"/>
<path d="M1007 444 c-14 -14 -6 -24 19 -24 16 0 24 5 22 13 -5 14 -31 21 -41
11z"/>
<path d="M3710 441 c0 -6 5 -13 10 -16 6 -3 10 1 10 9 0 9 -4 16 -10 16 -5 0
-10 -4 -10 -9z"/>
<path d="M2520 427 c0 -8 7 -20 16 -28 13 -10 17 -10 25 2 13 20 6 34 -19 37
-14 2 -22 -2 -22 -11z"/>
<path d="M2 233 c2 -109 8 -206 12 -216 5 -10 19 -17 36 -17 l28 0 -13 64 c-6
36 -16 71 -22 78 -23 29 -33 158 -19 241 7 41 6 47 -9 47 -15 0 -16 -17 -13
-197z"/>
<path d="M800 414 c0 -9 5 -14 12 -12 18 6 21 28 4 28 -9 0 -16 -7 -16 -16z"/>
<path d="M2590 416 c0 -9 7 -16 16 -16 17 0 14 22 -4 28 -7 2 -12 -3 -12 -12z"/>
<path d="M2650 415 c0 -8 5 -15 10 -15 6 0 10 7 10 15 0 8 -4 15 -10 15 -5 0
-10 -7 -10 -15z"/>
<path d="M2832 419 c2 -7 10 -15 17 -17 8 -3 12 1 9 9 -2 7 -10 15 -17 17 -8
3 -12 -1 -9 -9z"/>
<path d="M465 400 c-3 -5 1 -10 10 -10 9 0 13 5 10 10 -3 6 -8 10 -10 10 -2 0
-7 -4 -10 -10z"/>
<path d="M4000 400 c0 -5 5 -10 11 -10 5 0 7 5 4 10 -3 6 -8 10 -11 10 -2 0
-4 -4 -4 -10z"/>
<path d="M193 393 c-7 -2 -13 -11 -13 -19 0 -12 4 -12 20 -2 31 20 26 35 -7
21z"/>
<path d="M1670 390 c0 -5 7 -10 15 -10 8 0 15 5 15 10 0 6 -7 10 -15 10 -8 0
-15 -4 -15 -10z"/>
<path d="M520 376 c0 -8 5 -18 10 -21 6 -3 10 3 10 14 0 12 -4 21 -10 21 -5 0
-10 -6 -10 -14z"/>
<path d="M1980 376 c0 -10 9 -16 21 -16 24 0 21 23 -4 28 -10 2 -17 -3 -17
-12z"/>
<path d="M1000 371 c0 -5 6 -14 14 -20 10 -9 15 -8 19 3 3 8 3 17 0 20 -9 9
-33 7 -33 -3z"/>
<path d="M3011 372 c-6 -2 -11 -10 -11 -18 0 -8 -10 -14 -22 -14 -17 0 -19 -3
-10 -12 8 -8 15 -8 25 0 8 7 17 9 20 5 7 -7 47 25 47 38 0 8 -27 8 -49 1z"/>
<path d="M450 335 c0 -28 4 -35 20 -35 24 0 25 -6 4 -27 -11 -11 -12 -19 -5
-26 15 -15 14 -36 -4 -54 -16 -15 -11 -38 6 -28 5 4 9 1 9 -4 0 -6 -4 -11 -9
-11 -12 0 13 -50 31 -61 22 -14 28 -10 28 17 0 21 3 24 21 19 25 -8 69 28 69
57 0 15 -5 17 -25 12 -14 -3 -37 -3 -51 0 -24 6 -26 10 -20 46 3 22 2 41 -4
45 -5 3 -10 17 -10 30 0 21 -32 55 -52 55 -5 0 -8 -16 -8 -35z"/>
<path d="M1340 357 c0 -7 5 -18 11 -24 8 -8 8 -13 0 -17 -6 -4 -11 -16 -11
-27 0 -15 6 -19 22 -17 11 2 23 -3 26 -11 2 -8 0 -11 -5 -8 -6 4 -19 -3 -29
-14 -16 -18 -17 -22 -4 -32 18 -14 24 -43 11 -51 -17 -11 4 -61 27 -64 27 -4
28 -14 3 -36 -31 -28 -8 -56 46 -56 24 0 43 5 43 10 0 6 -4 10 -8 10 -4 0 -13
15 -20 33 -10 27 -10 34 3 43 29 21 18 44 -20 44 -33 0 -35 2 -25 21 7 11 9
27 6 35 -4 12 -1 14 14 9 35 -11 23 31 -15 53 -17 10 -18 11 -2 12 18 0 21 8
11 34 -4 12 -11 13 -24 6 -21 -11 -30 -4 -30 26 0 12 -7 24 -15 28 -8 3 -15 0
-15 -7z"/>
<path d="M2072 346 c-7 -17 -7 -27 1 -35 14 -14 44 -14 52 -1 3 6 2 10 -4 10
-5 0 -11 10 -13 22 -4 30 -23 33 -36 4z"/>
<path d="M2580 360 c0 -5 5 -10 11 -10 5 0 7 5 4 10 -3 6 -8 10 -11 10 -2 0
-4 -4 -4 -10z"/>
<path d="M3967 350 c-17 -17 -17 -18 8 -22 30 -6 43 9 24 27 -12 11 -17 10
-32 -5z"/>
<path d="M1630 330 c0 -35 10 -38 28 -10 14 23 8 40 -14 40 -9 0 -14 -11 -14
-30z"/>
<path d="M2890 337 c0 -15 4 -27 10 -27 5 0 9 9 7 20 -5 31 -17 36 -17 7z"/>
<path d="M2282 332 c4 -19 29 -23 35 -6 2 6 -6 14 -17 17 -16 4 -20 1 -18 -11z"/>
<path d="M3820 340 c0 -5 5 -10 10 -10 6 0 10 5 10 10 0 6 -4 10 -10 10 -5 0
-10 -4 -10 -10z"/>
<path d="M1975 329 c-11 -17 1 -21 15 -4 8 9 8 15 2 15 -6 0 -14 -5 -17 -11z"/>
<path d="M2802 318 c3 -7 13 -15 24 -17 16 -3 17 -1 5 13 -16 19 -34 21 -29 4z"/>
<path d="M2510 305 c-15 -18 -6 -45 16 -45 8 0 24 -10 33 -22 18 -21 51 -20
51 1 0 12 -67 81 -79 81 -5 0 -14 -7 -21 -15z"/>
<path d="M3805 310 c-3 -5 -1 -10 4 -10 6 0 11 5 11 10 0 6 -2 10 -4 10 -3 0
-8 -4 -11 -10z"/>
<path d="M190 291 c0 -19 17 -38 25 -29 7 7 -7 48 -16 48 -5 0 -9 -9 -9 -19z"/>
<path d="M572 288 c-12 -12 -17 -60 -6 -70 7 -8 42 27 45 44 5 38 -14 51 -39
26z"/>
<path d="M657 284 c-8 -8 1 -24 14 -24 5 0 9 7 9 15 0 15 -12 20 -23 9z"/>
<path d="M2074 266 c-11 -13 -18 -28 -16 -34 2 -7 -3 -12 -12 -12 -21 0 -20
-20 1 -35 26 -19 73 7 73 40 0 14 -5 25 -11 25 -6 0 -8 9 -4 20 8 26 -4 24
-31 -4z"/>
<path d="M330 270 c0 -5 5 -10 10 -10 6 0 10 5 10 10 0 6 -4 10 -10 10 -5 0
-10 -4 -10 -10z"/>
<path d="M1630 271 c0 -6 5 -13 10 -16 6 -3 10 -15 10 -26 0 -10 5 -19 10 -19
6 0 10 7 10 15 0 8 6 15 13 15 6 1 1 10 -12 20 -25 22 -41 26 -41 11z"/>
<path d="M2850 270 c0 -5 5 -10 10 -10 6 0 10 5 10 10 0 6 -4 10 -10 10 -5 0
-10 -4 -10 -10z"/>
<path d="M4080 260 c0 -19 11 -26 23 -14 8 8 -3 34 -14 34 -5 0 -9 -9 -9 -20z"/>
<path d="M3766 261 c-4 -7 -5 -15 -2 -18 9 -9 19 4 14 18 -4 11 -6 11 -12 0z"/>
<path d="M2682 253 c-10 -4 -10 -8 -1 -19 16 -20 29 -17 29 6 0 20 -5 23 -28
13z"/>
<path d="M190 236 c0 -9 5 -16 10 -16 6 0 10 4 10 9 0 6 -4 13 -10 16 -5 3
-10 -1 -10 -9z"/>
<path d="M230 221 c0 -17 0 -34 -1 -38 -1 -15 28 -26 47 -18 17 7 17 8 -6 14
-20 6 -24 12 -22 33 2 14 -2 29 -7 33 -7 4 -11 -5 -11 -24z"/>
<path d="M394 236 c-8 -22 3 -33 18 -18 9 9 9 15 0 24 -9 9 -13 7 -18 -6z"/>
<path d="M340 220 c0 -5 5 -10 10 -10 6 0 10 5 10 10 0 6 -4 10 -10 10 -5 0
-10 -4 -10 -10z"/>
<path d="M1932 212 c-19 -13 4 -70 46 -114 42 -44 62 -48 62 -13 0 14 -4 25
-9 25 -5 0 -14 14 -20 30 -5 17 -14 30 -19 30 -5 0 -14 11 -20 25 -12 27 -19
30 -40 17z"/>
<path d="M2760 210 c0 -5 5 -10 10 -10 6 0 10 5 10 10 0 6 -4 10 -10 10 -5 0
-10 -4 -10 -10z"/>
<path d="M3020 210 c0 -5 5 -10 11 -10 5 0 7 5 4 10 -3 6 -8 10 -11 10 -2 0
-4 -4 -4 -10z"/>
<path d="M176 201 c-4 -5 -2 -12 3 -15 5 -4 12 -2 15 3 4 5 2 12 -3 15 -5 4
-12 2 -15 -3z"/>
<path d="M2582 180 c4 -32 38 -39 56 -10 10 17 10 20 -3 20 -8 0 -15 4 -15 8
0 4 -9 8 -20 8 -16 0 -20 -6 -18 -26z"/>
<path d="M1430 180 c0 -5 4 -10 9 -10 6 0 13 5 16 10 3 6 -1 10 -9 10 -9 0
-16 -4 -16 -10z"/>
<path d="M2673 171 c-10 -16 -9 -20 10 -25 26 -7 28 -5 20 22 -7 27 -15 28
-30 3z"/>
<path d="M3821 174 c0 -11 3 -14 6 -6 3 7 2 16 -1 19 -3 4 -6 -2 -5 -13z"/>
<path d="M3995 181 c-6 -11 9 -23 19 -14 9 9 7 23 -3 23 -6 0 -12 -4 -16 -9z"/>
<path d="M643 173 c-7 -2 -13 -16 -13 -29 0 -15 -6 -24 -15 -24 -18 0 -20 -17
-2 -23 6 -2 8 -8 4 -13 -4 -4 -17 -3 -27 4 -23 14 -50 16 -50 3 0 -5 14 -24
32 -41 25 -26 29 -34 17 -41 -11 -7 -9 -9 9 -9 21 0 26 9 23 37 -1 7 5 13 13
13 8 0 16 -10 18 -22 2 -16 11 -24 28 -26 20 -3 23 -1 13 9 -17 17 -16 54 1
68 8 6 16 21 19 32 4 15 1 19 -11 17 -9 -2 -19 -15 -22 -30 -3 -19 -9 -25 -18
-20 -20 13 -4 70 21 74 33 5 33 28 0 27 -15 0 -34 -3 -40 -6z"/>
<path d="M160 160 c0 -5 9 -10 21 -10 11 0 17 5 14 10 -3 6 -13 10 -21 10 -8
0 -14 -4 -14 -10z"/>
<path d="M3370 140 c0 -17 5 -30 10 -30 6 0 10 4 10 9 0 5 3 16 6 24 3 8 -2
17 -10 20 -12 5 -16 -1 -16 -23z"/>
<path d="M2100 144 c0 -17 22 -14 28 4 2 7 -3 12 -12 12 -9 0 -16 -7 -16 -16z"/>
<path d="M2740 144 c0 -8 5 -12 10 -9 6 3 10 10 10 16 0 5 -4 9 -10 9 -5 0
-10 -7 -10 -16z"/>
<path d="M1652 138 c-17 -22 -19 -101 -2 -128 15 -24 23 -4 28 70 4 69 -3 85
-26 58z"/>
<path d="M4098 143 c7 -3 16 -2 19 1 4 3 -2 6 -13 5 -11 0 -14 -3 -6 -6z"/>
<path d="M100 131 c0 -6 5 -13 10 -16 6 -3 10 1 10 9 0 9 -4 16 -10 16 -5 0
-10 -4 -10 -9z"/>
<path d="M410 125 c0 -8 4 -15 9 -15 5 0 14 7 21 15 10 13 9 15 -9 15 -12 0
-21 -6 -21 -15z"/>
<path d="M2602 123 c2 -11 14 -19 31 -21 22 -3 27 1 27 17 0 17 -6 21 -31 21
-24 0 -30 -4 -27 -17z"/>
<path d="M215 120 c3 -5 8 -10 11 -10 2 0 4 5 4 10 0 6 -5 10 -11 10 -5 0 -7
-4 -4 -10z"/>
<path d="M2797 123 c-14 -13 -6 -23 19 -23 22 0 25 2 14 15 -14 16 -23 19 -33
8z"/>
<path d="M400 80 c0 -5 5 -10 10 -10 6 0 10 5 10 10 0 6 -4 10 -10 10 -5 0
-10 -4 -10 -10z"/>
<path d="M2086 68 c-9 -36 -8 -38 24 -38 30 0 37 11 24 44 -9 24 -41 19 -48
-6z"/>
<path d="M2667 69 c-3 -12 0 -22 8 -25 20 -8 35 4 35 27 0 26 -36 25 -43 -2z"/>
<path d="M3266 68 c-9 -12 -16 -33 -16 -45 0 -20 5 -23 42 -23 33 0 39 3 30
12 -7 7 -12 22 -12 34 0 12 -6 27 -14 33 -11 10 -17 7 -30 -11z"/>
<path d="M3885 79 c-10 -15 1 -23 20 -15 9 3 13 10 10 16 -8 13 -22 13 -30 -1z"/>
<path d="M143 74 c-27 -11 -11 -24 28 -24 28 0 39 4 37 13 -5 13 -44 19 -65
11z"/>
<path d="M1771 64 c0 -11 3 -14 6 -6 3 7 2 16 -1 19 -3 4 -6 -2 -5 -13z"/>
<path d="M2735 60 c-10 -11 -14 -20 -10 -20 5 0 4 -5 -3 -12 -19 -19 -14 -28
16 -28 25 0 27 4 29 40 1 45 -6 49 -32 20z"/>
<path d="M4112 68 c-14 -14 -16 -28 -3 -28 9 0 24 30 18 36 -2 2 -9 -2 -15 -8z"/>
<path d="M226 45 c-4 -14 -11 -25 -16 -25 -6 0 -10 -4 -10 -10 0 -5 6 -10 14
-10 17 0 44 41 39 58 -7 20 -20 14 -27 -13z"/>
<path d="M705 60 c-3 -5 3 -10 14 -10 12 0 21 5 21 10 0 6 -6 10 -14 10 -8 0
-18 -4 -21 -10z"/>
<path d="M2790 45 c0 -9 12 -20 26 -25 32 -12 34 -12 34 0 0 6 -7 10 -15 10
-8 0 -15 7 -15 15 0 8 -7 15 -15 15 -8 0 -15 -7 -15 -15z"/>
<path d="M3417 39 c7 -7 15 -10 18 -7 3 3 -2 9 -12 12 -14 6 -15 5 -6 -5z"/>
<path d="M3842 39 c5 -14 21 -14 26 0 2 6 -4 11 -13 11 -9 0 -15 -5 -13 -11z"/>
<path d="M140 29 c0 -5 5 -7 10 -4 6 3 10 8 10 11 0 2 -4 4 -10 4 -5 0 -10 -5
-10 -11z"/>
<path d="M722 23 c5 -25 28 -28 28 -4 0 12 -6 21 -16 21 -9 0 -14 -7 -12 -17z"/>
<path d="M765 31 c-3 -5 -1 -12 5 -16 5 -3 10 1 10 9 0 18 -6 21 -15 7z"/>
<path d="M4135 30 c3 -5 11 -10 16 -10 6 0 7 5 4 10 -3 6 -11 10 -16 10 -6 0
-7 -4 -4 -10z"/>
<path d="M400 15 c0 -8 5 -15 10 -15 6 0 10 7 10 15 0 8 -4 15 -10 15 -5 0
-10 -7 -10 -15z"/>
<path d="M1980 15 c0 -8 4 -15 10 -15 5 0 7 7 4 15 -4 8 -8 15 -10 15 -2 0 -4
-7 -4 -15z"/>
<path d="M530 10 c0 -5 7 -10 15 -10 8 0 15 5 15 10 0 6 -7 10 -15 10 -8 0
-15 -4 -15 -10z"/>
<path d="M3915 10 c-3 -5 1 -10 10 -10 9 0 13 5 10 10 -3 6 -8 10 -10 10 -2 0
-7 -4 -10 -10z"/>
</g>
</svg>
